<svg width="41px" height="29px" xmlns="http://www.w3.org/2000/svg" viewBox="0 0 111.35 77.2"><defs><style>.cls-1{fill:#fff;}</style></defs><title>1c</title><g id="Слой_2" data-name="Слой 2"><g id="Слой_1-2" data-name="Слой 1"><g id="Слой_1-3" data-name="Слой_1"><polygon class="cls-1" points="25.7 0.65 25.7 76.55 17.89 76.55 17.89 7.59 0 7.59 0 0.65 25.7 0.65"/><path id="_1" data-name="1" class="cls-1" d="M83.49,77.2a41.32,41.32,0,0,1-20.32-5A36.32,36.32,0,0,1,49,58.39,38.55,38.55,0,0,1,43.81,38.6,38.55,38.55,0,0,1,49,18.81,36.38,36.38,0,0,1,63.21,5,41.84,41.84,0,0,1,83.59,0,42.22,42.22,0,0,1,99.21,2.82a32.4,32.4,0,0,1,12.15,8.24l-5.09,5.1q-8.9-9-22.44-9a32.92,32.92,0,0,0-16.39,4.12A30.11,30.11,0,0,0,55.9,22.55,31.26,31.26,0,0,0,51.72,38.6,31.26,31.26,0,0,0,55.9,54.65,30.11,30.11,0,0,0,67.43,65.92,32.92,32.92,0,0,0,83.82,70q13.65,0,22.44-9.1L111.35,66a32.64,32.64,0,0,1-12.19,8.3A41.87,41.87,0,0,1,83.49,77.2Z"/></g></g></g></svg>