<svg width="55px" height="60px" xmlns="http://www.w3.org/2000/svg" viewBox="0 0 432 480"><defs><style>.cls-1{fill:#6c718b;}</style></defs><title>accountant</title><g id="Слой_2" data-name="Слой 2"><g id="Слой_1-2" data-name="Слой 1"><path class="cls-1" d="M384,232V216a56,56,0,0,0-112,0v16a56,56,0,0,0,112,0Zm-56-56a40.07,40.07,0,0,1,39.2,32H332.95l-5.75-11.57a8,8,0,0,0-5.88-4.32,7.82,7.82,0,0,0-6.94,2.24L300.69,208H288.8A40.07,40.07,0,0,1,328,176Zm0,96a40,40,0,0,1-40-40v-8h16a8,8,0,0,0,5.66-2.34l8.15-8.15,3,6.07A8,8,0,0,0,328,224h40v8A40,40,0,0,1,328,272Z"/><path class="cls-1" d="M423.2,337.71A88.57,88.57,0,0,0,344,288H312a88.11,88.11,0,0,0-88,88v88a16,16,0,0,0,16,16H416a16,16,0,0,0,16-16V376A87.67,87.67,0,0,0,423.2,337.71ZM344,304a71.09,71.09,0,0,1,18.2,2.49L328,340.69l-34.2-34.2A71.09,71.09,0,0,1,312,304ZM240,376a70.86,70.86,0,0,1,7.2-31.3A72.26,72.26,0,0,1,277.7,313l42.3,42.3V464H240Zm176,88H336V355.31L378.3,313a72.34,72.34,0,0,1,30.5,31.7A70.84,70.84,0,0,1,416,376Z"/><path class="cls-1" d="M360,360h32v16H360Z"/><path class="cls-1" d="M16,392V40A24,24,0,0,1,40,16H296a24,24,0,0,1,24,24V144h16V40A40,40,0,0,0,296,0H40A40,40,0,0,0,0,40V392a40,40,0,0,0,40,40H208V416H40A24,24,0,0,1,16,392Z"/><path class="cls-1" d="M288,128V64a16,16,0,0,0-16-16H64A16,16,0,0,0,48,64v64a16,16,0,0,0,16,16H272A16,16,0,0,0,288,128ZM64,128V64H272v64Z"/><path class="cls-1" d="M168,168a32,32,0,1,0,32,32A32,32,0,0,0,168,168Zm0,48a16,16,0,1,1,16-16A16,16,0,0,1,168,216Z"/><path class="cls-1" d="M277.6,176.4A32,32,0,1,0,256,232V216a16,16,0,1,1,10.8-27.81Z"/><path class="cls-1" d="M80,168a32,32,0,1,0,32,32A32,32,0,0,0,80,168Zm0,48a16,16,0,1,1,16-16A16,16,0,0,1,80,216Z"/><path class="cls-1" d="M168,248a32,32,0,1,0,32,32A32,32,0,0,0,168,248Zm0,48a16,16,0,1,1,16-16A16,16,0,0,1,168,296Z"/><path class="cls-1" d="M256,264a16,16,0,0,1,5.05.8l5-15.2a32,32,0,0,0-31.5,54.16l10.74-11.88A16,16,0,0,1,256,264Z"/><path class="cls-1" d="M80,248a32,32,0,1,0,32,32A32,32,0,0,0,80,248Zm0,48a16,16,0,1,1,16-16A16,16,0,0,1,80,296Z"/><path class="cls-1" d="M168,328a32,32,0,1,0,32,32A32,32,0,0,0,168,328Zm0,48a16,16,0,1,1,16-16A16,16,0,0,1,168,376Z"/><path class="cls-1" d="M80,328a32,32,0,1,0,32,32A32,32,0,0,0,80,328Zm0,48a16,16,0,1,1,16-16A16,16,0,0,1,80,376Z"/><path class="cls-1" d="M160,88h16v16H160Z"/><path class="cls-1" d="M192,88h16v16H192Z"/><path class="cls-1" d="M128,88h16v16H128Z"/></g></g></svg>