<svg width="60px" height="60px" xmlns="http://www.w3.org/2000/svg" viewBox="0 0 480 480"><defs><style>.cls-1{fill:#6c718b;}</style></defs><title>accounting</title><g id="Слой_2" data-name="Слой 2"><g id="Capa_1" data-name="Capa 1"><path class="cls-1" d="M478.4,67.2l-24-32a8.29,8.29,0,0,0-12.8,0l-24,32A8,8,0,0,0,416,72V448a32,32,0,0,0,64,0V72A8,8,0,0,0,478.4,67.2ZM464,448a16,16,0,0,1-32,0V432h32Zm0-32H432V400h32Zm0-32H432V96h32Zm0-304H432V74.66l16-21.33,16,21.33Z"/><path class="cls-1" d="M392,0H40a8,8,0,0,0-8,8V144.8A40.07,40.07,0,0,0,0,184V440a40,40,0,0,0,40,40H328a8,8,0,0,0,5.66-2.34l64-64a8,8,0,0,0,1.6-2.34c.11-.25.18-.49.26-.74a8,8,0,0,0,.42-2.08c0-.17.1-.32.1-.49V8A8,8,0,0,0,392,0ZM240,440a24,24,0,0,1-24,24H40a24,24,0,0,1-24-24V184a24,24,0,0,1,24-24H216a24,24,0,0,1,24,24ZM136,96v48H80V96ZM80,80V48h56V80ZM208,96v48H152V96ZM152,80V48h56V80Zm72,64.8V96h56V208H256V184A40.07,40.07,0,0,0,224,144.8ZM224,80V48h56V80ZM336,452.69V416h36.69ZM384,400H328a8,8,0,0,0-8,8v56H247.79A39.58,39.58,0,0,0,256,440V224H360a8,8,0,0,0,8-8V40a8,8,0,0,0-8-8H72a8,8,0,0,0-8,8V144H48V16H384ZM352,96V208H296V96ZM296,80V48h56V80Z"/><path class="cls-1" d="M216,184H40a8,8,0,0,0-8,8v48a8,8,0,0,0,8,8H216a8,8,0,0,0,8-8V192A8,8,0,0,0,216,184Zm-8,48H48V200H208Z"/><path class="cls-1" d="M224,328H176a8,8,0,0,0-8,8v96a8,8,0,0,0,8,8h48a8,8,0,0,0,8-8V336A8,8,0,0,0,224,328Zm-8,96H184V344h32Z"/><path class="cls-1" d="M224,264H176a8,8,0,0,0-8,8v32a8,8,0,0,0,8,8h48a8,8,0,0,0,8-8V272A8,8,0,0,0,224,264Zm-8,32H184V280h32Z"/><path class="cls-1" d="M152,328H104a8,8,0,0,0-8,8v32a8,8,0,0,0,8,8h48a8,8,0,0,0,8-8V336A8,8,0,0,0,152,328Zm-8,32H112V344h32Z"/><path class="cls-1" d="M152,264H104a8,8,0,0,0-8,8v32a8,8,0,0,0,8,8h48a8,8,0,0,0,8-8V272A8,8,0,0,0,152,264Zm-8,32H112V280h32Z"/><path class="cls-1" d="M80,328H32a8,8,0,0,0-8,8v32a8,8,0,0,0,8,8H80a8,8,0,0,0,8-8V336A8,8,0,0,0,80,328Zm-8,32H40V344H72Z"/><path class="cls-1" d="M80,264H32a8,8,0,0,0-8,8v32a8,8,0,0,0,8,8H80a8,8,0,0,0,8-8V272A8,8,0,0,0,80,264Zm-8,32H40V280H72Z"/><path class="cls-1" d="M152,392H104a8,8,0,0,0-8,8v32a8,8,0,0,0,8,8h48a8,8,0,0,0,8-8V400A8,8,0,0,0,152,392Zm-8,32H112V408h32Z"/><path class="cls-1" d="M80,392H32a8,8,0,0,0-8,8v32a8,8,0,0,0,8,8H80a8,8,0,0,0,8-8V400A8,8,0,0,0,80,392Zm-8,32H40V408H72Z"/></g></g></svg>