<svg width="47px" height="47px" xmlns="http://www.w3.org/2000/svg" viewBox="0 0 512 512"><defs><style>.cls-1{fill:#fff;}</style></defs><title>briefcase</title><g id="Слой_2" data-name="Слой 2"><g id="Слой_1-2" data-name="Слой 1"><path class="cls-1" d="M216,266a10,10,0,1,0-10-10A10,10,0,0,0,216,266Z"/><path class="cls-1" d="M50,286a10,10,0,1,0-10-10A10,10,0,0,0,50,286Z"/><path class="cls-1" d="M432,226.56V90a30,30,0,0,0-30-30H306V30A30,30,0,0,0,276,0H156a30,30,0,0,0-30,30V60H30A30,30,0,0,0,0,90V356a50.06,50.06,0,0,0,50,50H362v96a10,10,0,0,0,16.25,7.81l43.75-35,43.75,35A10,10,0,0,0,482,502V383.08a90,90,0,0,0-50-156.52ZM146,30a10,10,0,0,1,10-10H276a10,10,0,0,1,10,10V60H146ZM30,80H402a10,10,0,0,1,10,10v68.55L256.52,226.72a50,50,0,0,0-81,0L20,158.55V90A10,10,0,0,1,30,80ZM188.68,243.59a30,30,0,0,1,54.64,0,30,30,0,1,1-54.64,0ZM50,386a30,30,0,0,1-30-30V180.39l147.23,64.55a50,50,0,1,0,97.53,0L412,180.39v46.16a90,90,0,0,0-50,156.52V386Zm378.25,68.19a10,10,0,0,0-12.49,0l-33.75,27V396.61a89.85,89.85,0,0,0,80,0v84.59ZM422,386a70,70,0,1,1,70-70A70,70,0,0,1,422,386Z"/><path class="cls-1" d="M422,266a50,50,0,1,0,50,50A50.06,50.06,0,0,0,422,266Zm0,80a30,30,0,1,1,30-30A30,30,0,0,1,422,346Z"/><path class="cls-1" d="M90,346H60V316a10,10,0,0,0-20,0v40a10,10,0,0,0,10,10H90a10,10,0,0,0,0-20Z"/></g></g></svg>