<?xml version="1.0" encoding="UTF-8"?>
<!DOCTYPE svg PUBLIC "-//W3C//DTD SVG 1.1//EN" "http://www.w3.org/Graphics/SVG/1.1/DTD/svg11.dtd">
<!-- Creator: CorelDRAW X8 -->
<svg xmlns="http://www.w3.org/2000/svg" xml:space="preserve" width="115px" height="115px" version="1.1" style="shape-rendering:geometricPrecision; text-rendering:geometricPrecision; image-rendering:optimizeQuality; fill-rule:evenodd; clip-rule:evenodd"
viewBox="0 0 2745 2745"
 xmlns:xlink="http://www.w3.org/1999/xlink">
 <defs>
  <style type="text/css">
   <![CDATA[
    .fil0 {fill:#0A1136}
    .fil1 {fill:#AE9A66}
   ]]>
  </style>
 </defs>
 <g id="Слой_x0020_1">
  <metadata id="CorelCorpID_0Corel-Layer"/>
  <g id="_853236912">
   <path class="fil0" d="M1158 1426c30,0 54,-24 54,-54 0,-29 -24,-53 -54,-53 -30,0 -54,24 -54,53 0,30 24,54 54,54zm0 0z"/>
   <path class="fil1" d="M268 1533c30,0 54,-24 54,-53 0,-30 -24,-54 -54,-54 -30,0 -54,24 -54,54 0,29 24,53 54,53zm0 0z"/>
   <path class="fil0" d="M2316 1215l0 -331c0,0 0,0 0,0l0 -402c0,-88 -72,-160 -161,-160l-515 0 0 -161c0,-89 -72,-161 -160,-161l-644 0c-88,0 -161,72 -161,161l0 161 -514 0c-89,0 -161,72 -161,160l0 402 0 0 0 1024c0,148 120,268 268,268l1673 0 0 515c0,21 11,39 30,48 19,9 41,7 57,-6l234 -188 235 188c16,13 38,15 56,6 19,-9 31,-27 31,-48l0 -637c102,-92 161,-222 161,-360 0,-248 -188,-453 -429,-479l0 0zm-1533 -1054c0,-30 24,-54 53,-54l644 0c29,0 53,24 53,54l0 161 -750 0 0 -161zm-622 268l1994 0c30,0 54,24 54,53l0 368 -834 365c-50,-68 -130,-111 -217,-111 -87,0 -167,43 -217,111l-834 -365 0 -368c0,-29 24,-53 54,-53zm850 877c27,-57 84,-94 147,-94 63,0 120,37 146,94 10,21 15,43 15,66 0,89 -72,161 -161,161 -89,0 -161,-72 -161,-161 0,-23 5,-45 14,-66zm-743 763c-89,0 -161,-72 -161,-161l0 -941 790 346c-5,19 -7,39 -7,59 0,148 120,268 268,268 148,0 268,-120 268,-268 0,-20 -2,-40 -7,-59l790 -346 0 248c-241,26 -429,231 -429,479 0,138 58,268 161,360l0 15 -1673 0zm2028 366c-20,-16 -48,-16 -67,0l-181 145 0 -454c66,33 140,50 214,50 75,0 148,-17 215,-50l0 454 -181 -145zm-34 -366c-207,0 -375,-167 -375,-375 0,-207 168,-375 375,-375 207,0 375,168 375,375 0,208 -168,375 -375,375zm0 0z"/>
   <path class="fil1" d="M2262 1426c-148,0 -268,120 -268,268 0,148 120,268 268,268 148,0 268,-120 268,-268 0,-148 -120,-268 -268,-268zm0 429c-88,0 -161,-72 -161,-161 0,-89 73,-161 161,-161 89,0 161,72 161,161 0,89 -72,161 -161,161zm0 0z"/>
   <path class="fil1" d="M482 1855l-160 0 0 -161c0,-30 -24,-54 -54,-54 -30,0 -54,24 -54,54l0 214c0,30 24,54 54,54l214 0c30,0 54,-24 54,-54 0,-29 -24,-53 -54,-53l0 0zm0 0z"/>
  </g>
 </g>
</svg>
