<?xml version="1.0" encoding="UTF-8"?>
<!DOCTYPE svg PUBLIC "-//W3C//DTD SVG 1.1//EN" "http://www.w3.org/Graphics/SVG/1.1/DTD/svg11.dtd">
<!-- Creator: CorelDRAW X8 -->
<svg xmlns="http://www.w3.org/2000/svg" xml:space="preserve" width="44px" height="55px" version="1.1" style="shape-rendering:geometricPrecision; text-rendering:geometricPrecision; image-rendering:optimizeQuality; fill-rule:evenodd; clip-rule:evenodd"
viewBox="0 0 601 752"
 xmlns:xlink="http://www.w3.org/1999/xlink">
 <defs>
  <style type="text/css">
   <![CDATA[
    .fil1 {fill:#fff}
    .fil0 {fill:#fff}
   ]]>
  </style>
 </defs>
 <g id="Слой_x0020_1">
  <metadata id="CorelCorpID_0Corel-Layer"/>
  <g id="_690232400">
   <g>
    <path class="fil0" d="M124 142l0 -41c9,3 14,8 14,14 0,6 5,11 12,11 6,0 12,-5 12,-11 0,-19 -16,-34 -38,-39l0 -1c0,-7 -5,-12 -12,-12 -6,0 -12,5 -12,12l0 1c-21,5 -37,20 -37,39 0,26 21,37 37,43l0 41c-8,-3 -14,-8 -14,-14 0,-6 -5,-11 -11,-11 -7,0 -12,5 -12,11 0,19 16,34 37,38l0 2c0,7 6,12 12,12 7,0 12,-5 12,-12l0 -2c22,-4 38,-19 38,-38 0,-26 -21,-37 -38,-43zm-24 -9c-11,-6 -14,-11 -14,-18 0,-6 6,-11 14,-14l0 32zm24 66l0 -32c12,6 14,11 14,18 0,6 -5,11 -14,14z"/>
   </g>
  </g>
  <g id="_690234672">
   <g>
    <path class="fil1" d="M301 88l-101 0c-6,0 -12,5 -12,12 0,6 6,11 12,11l101 0c6,0 11,-5 11,-11 0,-7 -5,-12 -11,-12z"/>
   </g>
  </g>
  <g id="_690231856">
   <g>
    <path class="fil1" d="M213 188l-13 0c-6,0 -12,6 -12,12 0,7 6,12 12,12l13 0c6,0 12,-5 12,-12 0,-6 -6,-12 -12,-12z"/>
   </g>
  </g>
  <g id="_690233040">
   <g>
    <path class="fil1" d="M426 276l-351 0c-7,0 -12,6 -12,12 0,7 5,12 12,12l351 0c7,0 12,-5 12,-12 0,-6 -5,-12 -12,-12z"/>
   </g>
  </g>
  <g id="_690232816">
   <g>
    <path class="fil1" d="M188 352l-38 0c-7,0 -12,5 -12,12 0,6 5,11 12,11l38 0c6,0 11,-5 11,-11 0,-7 -5,-12 -11,-12z"/>
   </g>
  </g>
  <g id="_724543856">
   <g>
    <path class="fil1" d="M100 352l-25 0c-7,0 -12,5 -12,12 0,6 5,11 12,11l25 0c6,0 11,-5 11,-11 0,-7 -5,-12 -11,-12z"/>
   </g>
  </g>
  <g id="_724546672">
   <g>
    <path class="fil1" d="M188 402l-38 0c-7,0 -12,5 -12,12 0,6 5,12 12,12l38 0c6,0 11,-6 11,-12 0,-7 -5,-12 -11,-12z"/>
   </g>
  </g>
  <g id="_724545872">
   <g>
    <path class="fil1" d="M100 402l-25 0c-7,0 -12,5 -12,12 0,6 5,12 12,12l25 0c6,0 11,-6 11,-12 0,-7 -5,-12 -11,-12z"/>
   </g>
  </g>
  <g id="_724548816">
   <g>
    <path class="fil1" d="M188 452l-38 0c-7,0 -12,6 -12,12 0,7 5,12 12,12l38 0c6,0 11,-5 11,-12 0,-6 -5,-12 -11,-12z"/>
   </g>
  </g>
  <g id="_724543632">
   <g>
    <path class="fil1" d="M100 452l-25 0c-7,0 -12,6 -12,12 0,7 5,12 12,12l25 0c6,0 11,-5 11,-12 0,-6 -5,-12 -11,-12z"/>
   </g>
  </g>
  <g id="_724547440">
   <g>
    <path class="fil1" d="M188 502l-38 0c-7,0 -12,6 -12,12 0,7 5,12 12,12l38 0c6,0 11,-5 11,-12 0,-6 -5,-12 -11,-12z"/>
   </g>
  </g>
  <g id="_724548464">
   <g>
    <path class="fil1" d="M100 502l-25 0c-7,0 -12,6 -12,12 0,7 5,12 12,12l25 0c6,0 11,-5 11,-12 0,-6 -5,-12 -11,-12z"/>
   </g>
  </g>
  <g id="_724546864">
   <g>
    <path class="fil1" d="M188 553l-38 0c-7,0 -12,5 -12,12 0,6 5,11 12,11l38 0c6,0 11,-5 11,-11 0,-7 -5,-12 -11,-12z"/>
   </g>
  </g>
  <g id="_724547024">
   <g>
    <path class="fil1" d="M100 553l-25 0c-7,0 -12,5 -12,12 0,6 5,11 12,11l25 0c6,0 11,-5 11,-11 0,-7 -5,-12 -11,-12z"/>
   </g>
  </g>
  <g id="_724544944">
   <g>
    <path class="fil1" d="M338 188l-12 0c-7,0 -12,6 -12,12 0,7 5,12 12,12l12 0c7,0 12,-5 12,-12 0,-6 -5,-12 -12,-12z"/>
   </g>
  </g>
  <g id="_720441792">
   <g>
    <path class="fil1" d="M401 188l-12 0c-7,0 -12,6 -12,12 0,7 5,12 12,12l12 0c7,0 12,-5 12,-12 0,-6 -5,-12 -12,-12z"/>
   </g>
  </g>
  <g id="_720441632">
   <g>
    <path class="fil1" d="M276 188l-13 0c-6,0 -12,6 -12,12 0,7 6,12 12,12l13 0c6,0 11,-5 11,-12 0,-6 -5,-12 -11,-12z"/>
   </g>
  </g>
  <g id="_720441504">
   <g>
    <path class="fil1" d="M326 138l-126 0c-6,0 -12,5 -12,12 0,6 6,12 12,12l126 0c6,0 12,-6 12,-12 0,-7 -6,-12 -12,-12z"/>
   </g>
  </g>
  <g id="_720437504">
   <g>
    <path class="fil1" d="M552 327l-51 0 0 -190c0,-3 -1,-6 -4,-8l-125 -126c-2,-2 -5,-3 -8,-3l-327 0c-20,0 -37,17 -37,37l0 603c0,20 17,37 37,37l189 0 0 26c0,27 22,49 50,49l276 0c27,0 49,-22 49,-49l0 -327c0,-27 -22,-49 -49,-49zm-177 -287l86 86 -60 0c-14,0 -26,-12 -26,-26l0 -60zm-149 336l0 277 -189 0c-7,0 -13,-6 -13,-13l0 -603c0,-7 6,-13 13,-13l315 0 0 76c0,27 22,49 49,49l76 0 0 178 -201 0c-28,0 -50,22 -50,49zm352 327c0,14 -12,26 -26,26l-276 0c-15,0 -26,-12 -26,-26l0 -327c0,-14 11,-26 26,-26l276 0c14,0 26,12 26,26l0 327z"/>
   </g>
  </g>
  <g id="_720442592">
   <g>
    <path class="fil0" d="M527 377l-226 0c-14,0 -25,11 -25,24l0 50c0,14 11,25 25,25l226 0c13,0 24,-11 24,-25l0 -50c0,-13 -11,-24 -24,-24zm1 74c0,1 -1,1 -1,1l-226 0c-1,0 -1,0 -1,-1l0 -50c0,0 0,-1 1,-1l226 0c0,0 1,1 1,1l0 50 0 0z"/>
   </g>
  </g>
  <g id="_720436896">
   <g>
    <path class="fil1" d="M326 515l-25 0c-14,0 -25,11 -25,24l0 26c0,13 11,24 25,24l25 0c13,0 24,-11 24,-24l0 -26c0,-13 -11,-24 -24,-24zm1 50c0,0 -1,0 -1,0l-25 0c-1,0 -1,0 -1,0l0 -26c0,0 0,0 1,0l25 0c0,0 1,0 1,0l0 26 0 0z"/>
   </g>
  </g>
  <g id="_720440352">
   <g>
    <path class="fil1" d="M527 515l-25 0c-14,0 -25,11 -25,24l0 26c0,13 11,24 25,24l25 0c13,0 24,-11 24,-24l0 -26c0,-13 -11,-24 -24,-24zm1 50c0,0 -1,0 -1,0l-25 0c-1,0 -1,0 -1,0l0 -26c0,0 0,0 1,0l25 0c0,0 1,0 1,0l0 26z"/>
   </g>
  </g>
  <g id="_720443072">
   <g>
    <path class="fil1" d="M426 515l-25 0c-13,0 -24,11 -24,24l0 26c0,13 11,24 24,24l25 0c14,0 25,-11 25,-24l0 -26c0,-13 -11,-24 -25,-24zm1 50c0,0 0,0 -1,0l-25 0c0,0 -1,0 -1,0l0 -26c0,0 1,0 1,0l25 0c1,0 1,0 1,0l0 26z"/>
   </g>
  </g>
  <g id="_720439904">
   <g>
    <path class="fil1" d="M326 616l-25 0c-14,0 -25,10 -25,24l0 25c0,13 11,24 25,24l25 0c13,0 24,-11 24,-24l0 -25c0,-14 -11,-24 -24,-24zm1 49c0,0 -1,1 -1,1l-25 0c-1,0 -1,-1 -1,-1l0 -25c0,-1 0,-1 1,-1l25 0c0,0 1,0 1,1l0 25 0 0z"/>
   </g>
  </g>
  <g id="_720436736">
   <g>
    <path class="fil1" d="M527 616l-25 0c-14,0 -25,10 -25,24l0 25c0,13 11,24 25,24l25 0c13,0 24,-11 24,-24l0 -25c0,-14 -11,-24 -24,-24zm1 49c0,0 -1,1 -1,1l-25 0c-1,0 -1,-1 -1,-1l0 -25c0,-1 0,-1 1,-1l25 0c0,0 1,0 1,1l0 25z"/>
   </g>
  </g>
  <g id="_720436704">
   <g>
    <path class="fil1" d="M426 616l-25 0c-13,0 -24,10 -24,24l0 25c0,13 11,24 24,24l25 0c14,0 25,-11 25,-24l0 -25c0,-14 -11,-24 -25,-24zm1 49c0,0 0,1 -1,1l-25 0c0,0 -1,-1 -1,-1l0 -25c0,-1 1,-1 1,-1l25 0c1,0 1,0 1,1l0 25z"/>
   </g>
  </g>
 </g>
</svg>
