<svg width="64px" height="64px" xmlns="http://www.w3.org/2000/svg" viewBox="0 0 82.52 81.99"><defs><style>.cls-1{fill:#0a1136;}</style></defs><title>callback</title><g id="Слой_2" data-name="Слой 2"><g id="Слой_1-2" data-name="Слой 1"><g id="Слой_1-3" data-name="Слой_1"><path class="cls-1" d="M46.21,0A35.61,35.61,0,0,0,20.92,10.46a38.85,38.85,0,0,0-3.54,4.14,6.82,6.82,0,0,0-8.43,1L6.59,17.93a22.56,22.56,0,0,0,0,31.87l19,19a1.2,1.2,0,0,0,1.7-1.7l-19-19A20.17,20.17,0,0,1,6.62,21.48L8.2,23.06a1.2,1.2,0,1,0,1.7-1.7L8.23,19.69l.06-.06,2.35-2.35a4.43,4.43,0,0,1,6.08-.18.53.53,0,0,0,.21.15l7.15,7.15a4.5,4.5,0,0,1,0,6.32l-2.41,2.41-7.83-7.83a1.2,1.2,0,1,0-1.7,1.7l8.19,8.19a6.06,6.06,0,0,0,1.34,6.58L40.19,60.29a6.12,6.12,0,0,0,6.61,1.37L60.48,75.34a20.16,20.16,0,0,1-26.6-1.64L31.23,71a1.2,1.2,0,0,0-1.7,1.7l2.65,2.65a22.56,22.56,0,0,0,31.87,0L66.41,73a6.86,6.86,0,0,0,0-9.68l-7.15-7.15a6.85,6.85,0,0,0-9.65,0l-2.41,2.41a3.76,3.76,0,0,1-5.3,0L23.33,40.1a3.72,3.72,0,0,1,0-5.27l2.41-2.41a6.86,6.86,0,0,0,0-9.68l-6.55-6.55a31.34,31.34,0,0,1,3.43-4,33.38,33.38,0,0,1,49.63,44.5l-.39-7.54A1.21,1.21,0,0,0,70.58,48a1.24,1.24,0,0,0-1.13,1.25L70,59.7h0l0,0,0,0h0l0,0,0,0h0a1.14,1.14,0,0,0,.3.6h0l0,0h0l0,0h0l0,0h0l0,0h0a1.33,1.33,0,0,0,.69.33l0,0h0l0,0,0,0h0l0,0h0l0,0,0,0h0l0,0h0a0,0,0,0,0,.06,0h0c.06,0,.09,0,.15,0l10.13-2.68a1,1,0,0,0,.54-.3,1.25,1.25,0,0,0,.33-1.16A1.22,1.22,0,0,0,81,55.79L74.6,57.52A35.79,35.79,0,0,0,46.21,0Zm2.65,60.32,2.41-2.41a4.46,4.46,0,0,1,6.29,0L64.71,65a4.5,4.5,0,0,1,0,6.32L62.3,73.76Z"/></g></g></g></svg>