<svg width="31px" height="24px" xmlns="http://www.w3.org/2000/svg" viewBox="0 0 468 362"><defs><style>.cls-1{fill:#6c718b;}</style></defs><title>car</title><g id="Слой_2" data-name="Слой 2"><g id="Capa_1" data-name="Capa 1"><path class="cls-1" d="M450.1,134.5l-10.2-10.8L404.1,27.2A42,42,0,0,0,365,0H109.3A41.85,41.85,0,0,0,70.2,27.2L34.9,122.5,20.2,136.1A57.46,57.46,0,0,0,0,179.8V320.4A41.8,41.8,0,0,0,41.8,362H68.2A41.8,41.8,0,0,0,110,320.4V300H358v20.4A41.8,41.8,0,0,0,399.8,362h26.4A41.8,41.8,0,0,0,468,320.4V176.1A58,58,0,0,0,450.1,134.5ZM89,34a21.63,21.63,0,0,1,20.3-14H365.1a21.77,21.77,0,0,1,20.3,14l31.2,84H393.3a68.59,68.59,0,0,0-135.7,0H57.8Zm283.9,84H277.8a48.57,48.57,0,0,1,95.1,0ZM90,320.4A21.74,21.74,0,0,1,68.2,342H41.8A21.74,21.74,0,0,1,20,320.4V294.2c6,3.9,13.9,5.8,21.8,5.8H90Zm358,0A21.74,21.74,0,0,1,426.2,342H399.8A21.81,21.81,0,0,1,378,320.4V300h48.2c7.9,0,15.8-1.9,21.8-5.8v26.2ZM426.2,280H41.8A21.57,21.57,0,0,1,20,258.6V179.8a37.54,37.54,0,0,1,13.3-28.6l.4-.4L47.3,138H426l9.6,10.3c.1.2.4.3.5.5a37.69,37.69,0,0,1,11.8,27.3v82.5h.1A21.64,21.64,0,0,1,426.2,280Z"/><path class="cls-1" d="M132,178H57a10,10,0,0,0-10,10v52a10,10,0,0,0,10,10h75a10,10,0,0,0,10-10V188A10,10,0,0,0,132,178Zm-10,52H67V198h55Z"/><path class="cls-1" d="M411,178H336a10,10,0,0,0-10,10v52a10,10,0,0,0,10,10h75a10,10,0,0,0,10-10V188A10,10,0,0,0,411,178Zm-10,52H346V198h55Z"/><path class="cls-1" d="M282.3,220H185.7a10,10,0,1,0,0,20h96.6a10,10,0,1,0,0-20Z"/><path class="cls-1" d="M282.3,189H185.7a10,10,0,1,0,0,20h96.6a10,10,0,0,0,0-20Z"/></g></g></svg>