<svg width="50px" height="50px" xmlns="http://www.w3.org/2000/svg" viewBox="0 0 496 496"><defs><style>.cls-1{fill:#fff;}</style></defs><title>corruption</title><g id="Слой_2" data-name="Слой 2"><g id="Capa_1" data-name="Capa 1"><path class="cls-1" d="M176,296H144a8,8,0,0,1-8-8H120a24,24,0,0,0,24,24h8v8h16v-8h8a24,24,0,0,0,24-24v-8a24,24,0,0,0-24-24H144a8,8,0,0,1-8-8v-8a8,8,0,0,1,8-8h32a8,8,0,0,1,8,8h16a24,24,0,0,0-24-24h-8v-8H152v8h-8a24,24,0,0,0-24,24v8a24,24,0,0,0,24,24h32a8,8,0,0,1,8,8v8A8,8,0,0,1,176,296Z"/><path class="cls-1" d="M288,400H32v48H0v48H320V448H288ZM48,416H272v32H48Zm256,48v16H16V464Z"/><path class="cls-1" d="M472,0a24,24,0,0,0-22.53,16H286.53A23.94,23.94,0,0,0,240,24V152a23.94,23.94,0,0,0,46.53,8H320v32h96V160h33.47A23.94,23.94,0,0,0,496,152V24A24,24,0,0,0,472,0ZM272,152a8,8,0,0,1-16,0V24a8,8,0,0,1,16,0Zm128,24H336V160h64Zm48-32H288V32h16v96h16V32h96v96h16V32h16Zm32,8a8,8,0,0,1-16,0V24a8,8,0,0,1,16,0Z"/><path class="cls-1" d="M384,464a16,16,0,0,1-32,0V208H336V464a32,32,0,0,0,64,0V208H384Z"/><path class="cls-1" d="M160,384A120,120,0,1,0,40,264,120.14,120.14,0,0,0,160,384Zm0-224A104,104,0,1,1,56,264,104.12,104.12,0,0,1,160,160Z"/><path class="cls-1" d="M104.26,309.54A72,72,0,0,1,205.54,208.26l10.14-12.38A88,88,0,0,0,91.88,319.69Z"/><path class="cls-1" d="M160,336a72.1,72.1,0,0,1-45.54-16.26l-10.14,12.38A88,88,0,0,0,228.12,208.31l-12.38,10.14A72,72,0,0,1,160,336Z"/></g></g></svg>