<svg width="50px" height="50px" xmlns="http://www.w3.org/2000/svg" viewBox="0 0 496 496"><defs><style>.cls-1{fill:#fff;}</style></defs><title>corruption_1</title><g id="Слой_2" data-name="Слой 2"><g id="Capa_1" data-name="Capa 1"><path class="cls-1" d="M104,344h32a8,8,0,0,1,8,8h16a24,24,0,0,0-24-24h-8v-8H112v8h-8a24,24,0,0,0-24,24v8a24,24,0,0,0,24,24h32a8,8,0,0,1,8,8v8a8,8,0,0,1-8,8H104a8,8,0,0,1-8-8H80a24,24,0,0,0,24,24h8v8h16v-8h8a24,24,0,0,0,24-24v-8a24,24,0,0,0-24-24H104a8,8,0,0,1-8-8v-8A8,8,0,0,1,104,344Z"/><path class="cls-1" d="M120,256A120,120,0,1,0,240,376,120.14,120.14,0,0,0,120,256Zm0,224A104,104,0,1,1,224,376,104.12,104.12,0,0,1,120,480Z"/><path class="cls-1" d="M480,432V400h16V352H464V336h16V288H240v48h16v64h16v16H248v16h24v16H232v16h24v32H496V448H448V432Zm-16,32h16v16H464Zm0-48H448V400h16Zm16-48v16H464V368Zm-32-64h16v16H448Zm0,48H432V336h16Zm-32-48h16v16H416Zm0,96h16v16H416Zm-16-16V368h16v16Zm16-32H400V336h16Zm-32-48h16v16H384Zm0,96h16v16H384Zm-16-16V368h16v16Zm16-32H368V336h16Zm-32-48h16v16H352Zm0,96h16v16H352Zm-16-16V368h16v16Zm16-32H336V336h16Zm-32-48h16v16H320Zm0,96h16v16H320Zm-16-16V368h16v16Zm16-32H304V336h16Zm-32-48h16v16H288Zm0,96h16v16H288Zm-16-16V368h16v16Zm16-32H272V336h16Zm-32-32V304h16v16Zm32,160H272V464h16Zm0-48h16v16H288Zm32,48H304V464h16Zm0-48h16v16H320Zm32,48H336V464h16Zm0-48h16v16H352Zm32,48H368V464h16Zm0-48h16v16H384Zm32,48H400V464h16Zm0-48h16v16H416Zm32,48H432V464h16Zm-16-96V368h16v16Z"/><path class="cls-1" d="M120,304a72.1,72.1,0,0,1,45.54,16.26l10.14-12.38A88,88,0,0,0,51.88,431.69l12.38-10.14A72,72,0,0,1,120,304Z"/><path class="cls-1" d="M188.12,320.31l-12.38,10.14A72,72,0,0,1,74.46,431.74L64.31,444.13A88,88,0,0,0,188.12,320.31Z"/><path class="cls-1" d="M224,221.34V272h16V223.59c2.66.19,5.3.41,8,.41s5.34-.22,8-.41V272h16V221.34a112,112,0,1,0-48,0ZM248,16a96,96,0,1,1-96,96A96.11,96.11,0,0,1,248,16Z"/><path class="cls-1" d="M248,192a80,80,0,1,0-80-80A80.09,80.09,0,0,0,248,192Zm64-80a63.9,63.9,0,0,1-103.18,50.5l89.67-89.67A63.54,63.54,0,0,1,312,112ZM248,48a63.62,63.62,0,0,1,39.18,13.5L197.5,151.18A63.9,63.9,0,0,1,248,48Z"/></g></g></svg>