<svg width="29px" height="29px" xmlns="http://www.w3.org/2000/svg" viewBox="0 0 480 480"><defs><style>.cls-1{fill:#6c718b;}</style></defs><title>debt</title><g id="Слой_2" data-name="Слой 2"><g id="Capa_1" data-name="Capa 1"><path class="cls-1" d="M456,208H296a24,24,0,0,0-24,24V456a24,24,0,0,0,24,24H456a24,24,0,0,0,24-24V232A24,24,0,0,0,456,208ZM368,464H296a8,8,0,0,1-8-8V400h80Zm0-80H288V320h80Zm96,72a8,8,0,0,1-8,8H384V400h80Zm0-72H384V320h80Zm0-80H288V232a8,8,0,0,1,8-8H456a8,8,0,0,1,8,8Z"/><path class="cls-1" d="M440,240H312a8,8,0,0,0-8,8v32a8,8,0,0,0,8,8H440a8,8,0,0,0,8-8V248A8,8,0,0,0,440,240Zm-8,32H320V256H432Z"/><polygon class="cls-1" points="336 344 336 328 320 328 320 344 304 344 304 360 320 360 320 376 336 376 336 360 352 360 352 344 336 344"/><rect class="cls-1" x="400" y="344" width="48" height="16"/><polygon class="cls-1" points="350.62 421.66 339.31 410.34 328 421.66 316.69 410.34 305.38 421.66 316.69 432.97 305.38 444.28 316.69 455.59 328 444.28 339.31 455.59 350.62 444.28 339.31 432.97 350.62 421.66"/><rect class="cls-1" x="400" y="424" width="48" height="16"/><rect class="cls-1" x="416" y="444" width="16" height="8"/><rect class="cls-1" x="416" y="412" width="16" height="8"/><path class="cls-1" d="M320,0H88V.07a7.94,7.94,0,0,0-5.66,2.27l-80,80A7.92,7.92,0,0,0,.07,88H0V464a16,16,0,0,0,16,16H256V464H208V440h16a8,8,0,0,0,8-8V392a8,8,0,0,0-8-8H208V360h16a8,8,0,0,0,8-8V312a8,8,0,0,0-8-8h-.21a80,80,0,1,0-95.58,0H64a8,8,0,0,0-8,8v32H40a8,8,0,0,0-8,8v40a8,8,0,0,0,8,8H56v24H40a8,8,0,0,0-8,8v32H16V96H80A16,16,0,0,0,96,80V16H320V192h16V16A16,16,0,0,0,320,0ZM216,400v24H72V400ZM112,240a64,64,0,1,1,64,64A64,64,0,0,1,112,240ZM72,320H216v24H72ZM48,384V360H192v24H48Zm0,56H192v24H48ZM80,80H27.31L80,27.31Z"/><path class="cls-1" d="M176,216h24V200H184v-8H168v9.47A23.94,23.94,0,0,0,176,248a8,8,0,0,1,0,16H152v16h16v8h16v-9.47A23.94,23.94,0,0,0,176,232a8,8,0,0,1,0-16Z"/><path class="cls-1" d="M448,40H432a8,8,0,0,0-8-8h-8V8a8,8,0,0,0-8-8H376a8,8,0,0,0-8,8V32h-8a8,8,0,0,0-8,8V192h16V48h48V192h16V56h16V160h16V56A16,16,0,0,0,448,40Zm-48-8H384V16h16Z"/><rect class="cls-1" x="120" y="64" width="136" height="16"/><rect class="cls-1" x="32" y="112" width="272" height="16"/><rect class="cls-1" x="32" y="144" width="96" height="16"/><rect class="cls-1" x="232" y="144" width="72" height="16"/></g></g></svg>