<svg width="50px" height="50px" xmlns="http://www.w3.org/2000/svg" viewBox="0 0 512 512"><defs><style>.cls-1{fill:#fff;}</style></defs><title>envelope</title><g id="Слой_2" data-name="Слой 2"><g id="Слой_1-2" data-name="Слой 1"><path class="cls-1" d="M176,386a10,10,0,1,0,10,10A10,10,0,0,0,176,386Z"/><path class="cls-1" d="M502.28,202.48,406,120.33V70a10,10,0,0,0-10-10H346L297.53,16a61.8,61.8,0,0,0-83.06,0L166,60H116a10,10,0,0,0-10,10v50.33S9.45,202.71,9.32,202.84A30.16,30.16,0,0,0,0,224.57V482a30,30,0,0,0,30,30H482a30,30,0,0,0,30-30V224.57C512,215.61,507.74,207.14,502.28,202.48ZM406,146.62l81.46,69.51L406,294ZM227.91,30.84a41.8,41.8,0,0,1,56.18,0L316.2,60H195.8ZM126,80H386V313.12l-21.15,20.22-15.41-17.26A30,30,0,0,0,327,306H185a30,30,0,0,0-22.41,10.06l-15.42,17.28L126,313.12Zm-20,66.62V294L24.54,216.13ZM20,475.82V239.45L133.82,348.27ZM32.37,492,177.51,329.36A10,10,0,0,1,185,326H327a10,10,0,0,1,7.49,3.38L479.63,492ZM492,475.82,378.18,348.27,492,239.45Z"/><path class="cls-1" d="M336,386H216a10,10,0,0,0,0,20H336a10,10,0,0,0,0-20Z"/><path class="cls-1" d="M196,226c-4.27,0-8.89-2.69-13-7.56a10,10,0,1,0-15.31,12.87,41.42,41.42,0,0,0,18.29,13V256a10,10,0,0,0,20,0V244.28A30,30,0,0,0,196,186a10,10,0,0,1,0-20c3.54,0,7.28,1.81,10.82,5.23a10,10,0,1,0,13.91-14.37A38.59,38.59,0,0,0,206,147.65V136a10,10,0,0,0-20,0v11.72A30,30,0,0,0,196,206a10,10,0,0,1,0,20Z"/><path class="cls-1" d="M276,146h60a10,10,0,0,0,0-20H276a10,10,0,0,0,0,20Z"/><path class="cls-1" d="M276,206h60a10,10,0,0,0,0-20H276a10,10,0,0,0,0,20Z"/><path class="cls-1" d="M276,266h60a10,10,0,0,0,0-20H276a10,10,0,0,0,0,20Z"/></g></g></svg>