<?xml version="1.0" encoding="UTF-8"?>
<!DOCTYPE svg PUBLIC "-//W3C//DTD SVG 1.1//EN" "http://www.w3.org/Graphics/SVG/1.1/DTD/svg11.dtd">
<!-- Creator: CorelDRAW X8 -->
<svg xmlns="http://www.w3.org/2000/svg" xml:space="preserve" width="115px" height="102px" version="1.1" style="shape-rendering:geometricPrecision; text-rendering:geometricPrecision; image-rendering:optimizeQuality; fill-rule:evenodd; clip-rule:evenodd"
viewBox="0 0 1977 1741"
 xmlns:xlink="http://www.w3.org/1999/xlink">
 <defs>
  <style type="text/css">
   <![CDATA[
    .fil1 {fill:#0A1136}
    .fil0 {fill:#AE9A66}
   ]]>
  </style>
 </defs>
 <g id="Слой_x0020_1">
  <metadata id="CorelCorpID_0Corel-Layer"/>
  <path class="fil0" d="M817 825c44,-44 104,-72 171,-72 67,0 128,28 172,72 44,44 71,104 71,171l0 84 16 0c17,0 33,7 44,18l0 0c12,12 19,28 19,45l0 370c0,17 -7,33 -19,44 -11,11 -27,19 -44,19l-517 0c-18,0 -33,-8 -45,-19 -11,-11 -18,-27 -18,-44l0 -370c0,-18 7,-33 18,-45 12,-11 27,-18 45,-18l15 0 0 -84c0,-67 28,-127 72,-171zm52 52c-31,31 -49,73 -49,119l0 84 337 0 0 -84c0,-46 -19,-88 -49,-119 -31,-31 -73,-49 -120,-49 -46,0 -88,18 -119,49zm366 624l0 -347 -494 0 0 347 494 0zm-354 -90c-7,6 -16,10 -26,10 -10,0 -20,-4 -26,-10 -7,-7 -11,-16 -11,-27l0 -88c0,-10 4,-19 11,-26 6,-7 16,-11 26,-11 10,0 19,4 26,11 7,7 11,16 11,26l0 88c0,11 -4,20 -11,27zm134 0c-7,6 -16,10 -27,10 -10,0 -19,-4 -26,-10 -7,-7 -11,-16 -11,-27l0 -88c0,-10 4,-19 11,-26 7,-7 16,-11 26,-11 11,0 20,4 27,11 6,7 10,16 10,26l0 88c0,11 -4,20 -10,27zm133 0c-7,6 -16,10 -26,10 -10,0 -20,-4 -26,-10 -7,-7 -11,-16 -11,-27l0 -88c0,-10 4,-19 11,-26 6,-7 16,-11 26,-11 10,0 19,4 26,11 7,7 11,16 11,26l0 88c0,11 -4,20 -11,27z"/>
  <path class="fil1" d="M1966 1447c-7,7 -16,11 -27,11 -10,0 -19,-4 -26,-11 -7,-6 -11,-16 -11,-26l0 -775c0,-4 -1,-8 -4,-11 -3,-3 -7,-4 -11,-4l-1798 0c-4,0 -8,1 -10,4 -3,3 -5,7 -5,11l0 1006c0,4 2,8 5,11 2,2 6,4 10,4l1798 0c4,0 8,-2 11,-4 3,-3 4,-7 4,-11l0 -97c0,-10 4,-20 11,-26 7,-7 16,-11 26,-11 11,0 20,4 27,11 6,6 11,16 11,26l0 97c0,25 -10,47 -27,63 -16,16 -38,26 -63,26l-1798 0c-24,0 -47,-10 -63,-26 -16,-16 -26,-38 -26,-63l0 -1006c0,-25 10,-47 26,-63 16,-16 37,-26 60,-27l0 -159c0,-11 4,-20 11,-27 7,-6 16,-11 26,-11 11,0 20,5 27,11 6,7 10,16 10,27l0 159 52 0 0 -162c0,-20 8,-38 21,-51 13,-14 31,-22 51,-22l1408 0c20,0 39,8 52,22 13,13 21,31 21,51l0 162 51 0 0 -264c0,-8 -3,-16 -9,-22 -6,-6 -14,-9 -22,-9l-763 0c-16,0 -32,-4 -47,-11 -14,-7 -27,-17 -37,-30l-102 -134c-3,-3 -7,-6 -11,-9 -4,-2 -9,-3 -14,-3l-619 0c-9,0 -17,4 -22,9 -6,6 -10,14 -10,23l0 156c0,11 -4,20 -10,27 -7,6 -16,10 -27,10 -10,0 -19,-4 -26,-10l0 0c-7,-7 -11,-16 -11,-27l0 -156c0,-29 12,-56 31,-75 19,-19 46,-31 75,-31l619 0c16,0 32,4 47,11 14,7 27,17 37,30l102 133c3,4 7,7 11,9 4,3 9,4 14,4l763 0c29,0 55,12 74,31 20,19 31,45 31,74l0 264c24,1 45,11 60,27 17,16 27,38 27,63l0 775c0,10 -5,20 -11,26l0 0zm-1680 -891l1405 0 0 -160 -1405 0 0 160z"/>
 </g>
</svg>
