<svg width="75px" height="75px" xmlns="http://www.w3.org/2000/svg" viewBox="0 0 60 60"><defs><style>.cls-1{fill:#0a1136;}</style></defs><title>folder</title><g id="Слой_2" data-name="Слой 2"><g id="Capa_1" data-name="Capa 1"><path class="cls-1" d="M57.49,27H54V20.73A2.74,2.74,0,0,0,51.27,18H48V15.59l-.49-.49h0l-7.3-7.3L32.41,0H8V11H2.73A2.74,2.74,0,0,0,0,13.73V57.42H0A2.55,2.55,0,0,0,2.57,60H47.32a2.54,2.54,0,0,0,2.45-1.81L60,30.15V30C60,28.25,58.94,27,57.49,27Zm-6.22-7a.73.73,0,0,1,.73.73V27H48V20ZM33,3.41,44.59,15H33ZM10,2H31V17H46V27H12.73a2.57,2.57,0,0,0-.42,0,2.52,2.52,0,0,0-2,1.78l-.28.77V2ZM2,13.73A.73.73,0,0,1,2.73,13H8V35L2,51.4ZM47.87,57.58a.57.57,0,0,1-.54.42H2.57a.55.55,0,0,1-.45-.22A.54.54,0,0,1,2,57.37L8,40.9H8l4.16-11.4,0-.08a.57.57,0,0,1,.55-.42H57.49c.38,0,.48.55.5.82Z"/><path class="cls-1" d="M16,17H26a1,1,0,0,0,0-2H16a1,1,0,0,0,0,2Z"/><path class="cls-1" d="M16,10H26a1,1,0,0,0,0-2H16a1,1,0,0,0,0,2Z"/><path class="cls-1" d="M16,24H40a1,1,0,0,0,0-2H16a1,1,0,0,0,0,2Z"/></g></g></svg>