<?xml version="1.0" encoding="UTF-8"?>
<!DOCTYPE svg PUBLIC "-//W3C//DTD SVG 1.1//EN" "http://www.w3.org/Graphics/SVG/1.1/DTD/svg11.dtd">
<!-- Creator: CorelDRAW X8 -->
<svg xmlns="http://www.w3.org/2000/svg" xml:space="preserve" width="115px" height="116px" version="1.1" style="shape-rendering:geometricPrecision; text-rendering:geometricPrecision; image-rendering:optimizeQuality; fill-rule:evenodd; clip-rule:evenodd"
viewBox="0 0 3895 3894"
 xmlns:xlink="http://www.w3.org/1999/xlink">
 <defs>
  <style type="text/css">
   <![CDATA[
    .fil0 {fill:#0A1136}
    .fil1 {fill:#AE9A66}
   ]]>
  </style>
 </defs>
 <g id="Слой_x0020_1">
  <metadata id="CorelCorpID_0Corel-Layer"/>
  <g id="_853240464">
   <g>
    <g>
     <path class="fil0" d="M2594 1406c-14,-14 -33,-22 -53,-22 -20,0 -40,8 -54,22 -14,14 -22,34 -22,54 0,20 8,39 22,54 14,14 34,22 54,22 20,0 39,-8 53,-22 15,-15 23,-34 23,-54 0,-20 -8,-40 -23,-54z"/>
    </g>
   </g>
   <g>
    <g>
     <path class="fil1" d="M2359 2519c-109,0 -197,-77 -197,-172 0,-96 88,-173 197,-173 109,0 198,77 198,173 0,42 34,76 76,76 42,0 76,-34 76,-76 0,-155 -117,-285 -274,-317l0 -8c0,-42 -34,-76 -76,-76 -42,0 -76,34 -76,76l0 8c-156,32 -274,162 -274,317 0,178 157,324 350,324 109,0 198,77 198,172 0,96 -89,173 -198,173 -109,0 -197,-77 -197,-173 0,-42 -34,-76 -76,-76 -42,0 -77,34 -77,76 0,155 118,285 274,317l0 19c0,42 34,77 76,77 42,0 76,-35 76,-77l0 -19c157,-32 274,-162 274,-317 0,-178 -157,-324 -350,-324z"/>
    </g>
   </g>
   <g>
    <g>
     <path class="fil0" d="M3388 1461l-450 -562 225 -443c50,-97 31,-208 -48,-283 -79,-75 -191,-88 -286,-34 -31,19 -71,15 -99,-7 -215,-176 -528,-176 -743,-1 -29,23 -69,27 -100,8 -94,-54 -206,-41 -285,34 -80,75 -99,186 -49,283l226 444 -262 328c-26,33 -21,81 12,107 33,26 80,21 107,-12l270 -338 559 0 0 214c0,42 34,76 76,76 42,0 76,-34 76,-76l0 -214 116 0 0 760c0,42 34,76 76,76 42,0 76,-34 76,-76l0 -669 384 480c305,382 474,861 474,1350 0,461 -375,836 -836,836l-1096 0c-275,0 -526,-132 -683,-355 280,-147 463,-297 570,-464 116,-182 130,-362 134,-562 0,-1 0,-1 0,-2l0 -632c0,-30 -17,-57 -44,-69l-840 -386c-20,-10 -43,-10 -64,0l-840 386c-27,12 -44,39 -44,69l0 632c0,1 0,1 0,2 5,200 18,380 135,562 128,201 366,376 749,553 10,5 21,7 32,7 11,0 22,-2 32,-7 14,-6 29,-13 43,-20 84,125 196,231 327,306 149,86 320,132 493,132l1096 0c545,0 988,-443 988,-988 0,-523 -180,-1036 -507,-1445zm-587 -628l-886 0 -227 -446c-27,-54 7,-93 18,-104 11,-10 52,-43 105,-12 86,50 195,41 272,-22 160,-130 391,-129 551,1 76,62 186,71 271,21 53,-31 94,2 105,12 11,11 46,50 18,104l-227 446zm-1885 2490c-749,-353 -756,-637 -764,-965l0 -582 764 -352 764 352 0 582c-7,328 -15,612 -764,965z"/>
    </g>
   </g>
   <g>
    <g>
     <path class="fil1" d="M1402 2121c-30,-30 -78,-30 -108,0l-426 426 -180 -181c-30,-29 -78,-29 -108,0 -30,30 -30,78 0,108l234 234c15,15 34,22 54,22 19,0 39,-7 54,-22l480 -480c30,-30 30,-78 0,-107z"/>
    </g>
   </g>
  </g>
 </g>
</svg>
