<svg width="29px" height="26px" xmlns="http://www.w3.org/2000/svg" viewBox="0 0 512 456.41"><defs><style>.cls-1{fill:#6c718b;}</style></defs><title>home</title><g id="Слой_2" data-name="Слой 2"><g id="Layer_1" data-name="Layer 1"><path class="cls-1" d="M506.56,180.27,263.86,2.57a13.3,13.3,0,0,0-15.72,0L5.45,180.27a13.3,13.3,0,0,0,15.72,21.47L256,29.79,490.84,201.73a13.3,13.3,0,0,0,15.72-21.47Z"/><path class="cls-1" d="M442.25,204.75a13.3,13.3,0,0,0-13.3,13.3V429.8H322.52V314.21a66.52,66.52,0,1,0-133,0V429.8H83.06V218a13.3,13.3,0,0,0-26.61,0V443.1a13.3,13.3,0,0,0,13.3,13.3h133A13.3,13.3,0,0,0,216,444.14a10,10,0,0,0,.05-1V314.21a39.91,39.91,0,0,1,79.83,0V443.1a9.76,9.76,0,0,0,.05,1,13.3,13.3,0,0,0,13.25,12.28h133a13.3,13.3,0,0,0,13.3-13.3V218A13.3,13.3,0,0,0,442.25,204.75Z"/></g></g></svg>