<svg xmlns="http://www.w3.org/2000/svg" viewBox="0 0 1626 278.85"><defs><style>.cls-1{fill:#0a1136;}</style></defs><title>logo</title><g id="Слой_2" data-name="Слой 2"><g id="Слой_1-2" data-name="Слой 1"><path class="cls-1" d="M122.88,122.88a11.85,11.85,0,0,1-8.41-3.48L62.94,67.86A11.89,11.89,0,0,1,79.76,51l43.12,43.12,82.76-82.76a11.89,11.89,0,1,1,16.82,16.82l-91.17,91.17A11.85,11.85,0,0,1,122.88,122.88Z"/><path class="cls-1" d="M181,89.25A79.24,79.24,0,1,1,23.78,103.06V23.78h79.28a78.87,78.87,0,0,1,51.48,19.11L171.41,26A102.62,102.62,0,0,0,103.06,0H0V103.06A103.06,103.06,0,1,0,200.56,69.74Z"/><path class="cls-1" d="M366,30.1c41.41,0,74.82,29.92,74.82,72.69,0,43.31-33.4,73-74.82,73H309a3.37,3.37,0,0,1-3.74-3.74V33.84A3.37,3.37,0,0,1,309,30.1Zm-29.68,116H366c26.46,0,43.57-16.58,43.57-43.31S392.43,59.5,366,59.5H336.28Z"/><path class="cls-1" d="M613.58,146.9H540.89l-10.16,25.66a4.58,4.58,0,0,1-4.55,3.2H499.72c-2.68,0-3.46-1.33-2.68-3.74L560.13,32.23a3.32,3.32,0,0,1,3.46-2.13h30.49a3.34,3.34,0,0,1,3.46,2.13l60.13,139.26a3,3,0,0,1-2.94,4.27H629.36a5.77,5.77,0,0,1-5.61-3.74ZM552.1,118.83h50.79L579.37,59h-2.94Z"/><path class="cls-1" d="M787.29,30.1c32.34,0,57.19,23,57.19,53.19a51.47,51.47,0,0,1-25.66,44.63l23,44.09c1.07,1.87-.26,3.74-2.39,3.74h-26.2a5.09,5.09,0,0,1-4.81-2.68l-17.91-36.34a28.23,28.23,0,0,1-4.27.26H748.81v35a3.38,3.38,0,0,1-3.74,3.74H721.54A3.37,3.37,0,0,1,717.8,172V33.84a3.37,3.37,0,0,1,3.74-3.74Zm0,77.5c16.84,0,26.2-10.69,26.2-24.31s-9.36-23.79-26.2-23.79H748.81V107.6Z"/><path class="cls-1" d="M1042.52,62.44c1.09,1.87.81,3.2-.52,4.27l-16.84,12.84c-1.87,1.87-4,.81-5.07-.54-11-15-23-21.65-41.15-21.65-26.75,0-44.37,18.72-44.37,45.18s17.91,46,44.37,46c18.17,0,31-6.4,42-22.44,1.33-1.35,2.68-1.35,4.27,0L1042,139.41c1.33,1.33,1.61,2.94.52,4.27-13.62,22.46-36.87,34.21-63.59,34.21-42.76,0-75.38-32.34-75.38-75.36s32.62-74.58,75.38-74.58C1004,27.95,1029.7,40.53,1042.52,62.44Z"/><path class="cls-1" d="M1133.61,30.1a3.38,3.38,0,0,1,3.74,3.74V85.42h66.27V33.84a3.38,3.38,0,0,1,3.74-3.74h23.52a3.38,3.38,0,0,1,3.74,3.74V172a3.38,3.38,0,0,1-3.74,3.74h-23.52a3.38,3.38,0,0,1-3.74-3.74V114.82h-66.27V172a3.38,3.38,0,0,1-3.74,3.74h-23.52a3.37,3.37,0,0,1-3.74-3.74V33.84a3.37,3.37,0,0,1,3.74-3.74Z"/><path class="cls-1" d="M1296.48,33.84a3.37,3.37,0,0,1,3.74-3.74h23.52c2.39,0,3.72,1.33,3.72,3.74v77.5c0,21.65,12,37.15,34.21,37.15,21.65,0,34.49-14.69,34.49-37.15V33.84a3.37,3.37,0,0,1,3.74-3.74h23.5a3.37,3.37,0,0,1,3.74,3.74V111.6c0,37.69-25.11,66.29-65.48,66.29-40.09,0-65.2-28.6-65.2-66.29Z"/><path class="cls-1" d="M1516.28,30.1a3.38,3.38,0,0,1,3.74,3.74V91.56l60.13-59.32a10.78,10.78,0,0,1,6.94-2.13h32.6c2.42,0,3.22,2.13,1.35,4L1557.17,94,1625,171.75c1.87,1.87.81,4-1.61,4h-32.06c-2.94,0-5.09-.81-6.68-2.68l-48.92-60.93L1520,124.44V172a3.38,3.38,0,0,1-3.74,3.74h-23.52A3.37,3.37,0,0,1,1489,172V33.84a3.37,3.37,0,0,1,3.74-3.74Z"/><path class="cls-1" d="M991.73,235.16a.76.76,0,0,1-.14,1.1l-4.34,3.31a.84.84,0,0,1-1.31-.14c-2.83-3.86-5.93-5.58-10.61-5.58-6.9,0-11.44,4.83-11.44,11.65s4.62,11.85,11.44,11.85c4.69,0,8-1.65,10.82-5.79a.71.71,0,0,1,1.1,0l4.34,3.45a.78.78,0,0,1,.14,1.1c-3.52,5.79-9.51,8.82-16.4,8.82a19,19,0,0,1-19.44-19.43c0-11.09,8.41-19.23,19.44-19.23C981.8,226.27,988.42,229.51,991.73,235.16Z"/><path class="cls-1" d="M1050.78,226.27a19.37,19.37,0,0,1,19.71,19.37c0,11.09-8.89,19.29-19.71,19.29s-19.78-8.2-19.78-19.29S1039.9,226.27,1050.78,226.27Zm-11.72,19.37c0,6.82,4.83,11.78,11.72,11.78s11.64-5,11.64-11.78-4.82-11.86-11.64-11.86S1039.07,238.67,1039.07,245.64Z"/><path class="cls-1" d="M1112.42,227.79a.87.87,0,0,1,1-1h4.89a1,1,0,0,1,1.1.82l.62,2.76h.42a15.34,15.34,0,0,1,10.75-4.14c9.58,0,16.06,5.45,16.06,16.68v20.47c0,.62-.34,1-1,1h-6.07c-.62,0-.9-.34-.9-1V243c0-6.34-3.1-9.17-8.55-9.17a12.86,12.86,0,0,0-10.26,4.83v24.74a.87.87,0,0,1-1,1h-6.07a.87.87,0,0,1-1-1Z"/><path class="cls-1" d="M1220.85,232a.78.78,0,0,1,.2,1.24l-3.45,4.27a.9.9,0,0,1-1.45.07,18.5,18.5,0,0,0-11.85-3.86c-4.69,0-7.23,1.31-7.23,3.45s2.07,3.31,8.34,3.93c9.65.9,16.61,4.14,16.61,12,0,7.51-7,11.85-16.47,11.85-6.89,0-12.27-1.65-17.23-5.79-.48-.35-.48-.83-.07-1.38l3.24-4.34a.85.85,0,0,1,1.37-.21,18.84,18.84,0,0,0,12.82,4.28c5.79,0,8.41-1.72,8.41-4.28s-2.62-3.86-9.58-4.48c-9.24-.76-15.37-3.51-15.37-11.3,0-6.82,6.55-11.17,15.58-11.17A25.17,25.17,0,0,1,1220.85,232Z"/><path class="cls-1" d="M1270.34,226.82a.87.87,0,0,1,1,1V248c0,6.55,2.69,9.37,8.47,9.37a13,13,0,0,0,10.34-4.82V227.79a.87.87,0,0,1,1-1h6.07a.87.87,0,0,1,1,1v35.63a.87.87,0,0,1-1,1h-4.89a1,1,0,0,1-1.1-.82l-.62-2.76h-.42a15.86,15.86,0,0,1-11.16,4.14c-9.37,0-15.65-5-15.65-16.47V227.79a.87.87,0,0,1,1-1Z"/><path class="cls-1" d="M1348.84,215.86a.87.87,0,0,1,1,1v46.59a.87.87,0,0,1-1,1h-6.07a1,1,0,0,1-1-1V216.83a.87.87,0,0,1,1-1Z"/><path class="cls-1" d="M1396.61,219.52a.94.94,0,0,1,1-1h5.24a.94.94,0,0,1,1,1v7.31H1414a.87.87,0,0,1,1,1v5.51a.87.87,0,0,1-1,1h-10.2v17.85c0,3.51,1.86,5.31,4.83,5.31a10.54,10.54,0,0,0,5-1.11c.76-.34,1.17-.07,1.38.42l1.86,4.41a.93.93,0,0,1-.48,1.37,14.93,14.93,0,0,1-8.68,2.41c-8.27,0-11.86-5.24-11.86-12.61V234.26h-4.27a.87.87,0,0,1-1-1v-5a.85.85,0,0,1,.82-.9l4.48-.42Z"/><path class="cls-1" d="M1455.52,216.89a5.72,5.72,0,1,1,5.79,5.72A5.92,5.92,0,0,1,1455.52,216.89Zm8.75,9.93a.87.87,0,0,1,1,1v35.63a.87.87,0,0,1-1,1h-6.07a.87.87,0,0,1-1-1V227.79a.87.87,0,0,1,1-1Z"/><path class="cls-1" d="M1508.94,227.79a.87.87,0,0,1,1-1h4.89a1,1,0,0,1,1.1.82l.62,2.76h.42a15.34,15.34,0,0,1,10.75-4.14c9.58,0,16.06,5.45,16.06,16.68v20.47c0,.62-.34,1-1,1h-6.07c-.62,0-.9-.34-.9-1V243c0-6.34-3.1-9.17-8.55-9.17a12.86,12.86,0,0,0-10.26,4.83v24.74a.87.87,0,0,1-1,1h-6.07a.87.87,0,0,1-1-1Z"/><path class="cls-1" d="M1622.27,226.82a.87.87,0,0,1,1,1v31.63c0,11.51-7.23,19.43-18.82,19.43-7.1,0-12.82-1.86-17.3-6.55-.56-.55-.35-1,0-1.52l3.31-3.93a1.17,1.17,0,0,1,1.72-.21,16.54,16.54,0,0,0,12.27,4.69c6.89,0,11.17-4,11.65-10.61h-.55a14.65,14.65,0,0,1-10.75,4.2c-11.37,0-19.71-7.65-19.71-19.29s8.34-19.37,19.71-19.37a15.23,15.23,0,0,1,10.75,3.93l.48-.07.55-2.41a1,1,0,0,1,1-.89Zm-7,11.58a13,13,0,0,0-10.47-4.62c-6.69,0-11.78,4.55-11.78,11.86s5.1,11.78,11.78,11.78a13.13,13.13,0,0,0,10.47-4.62Z"/></g></g></svg>