<svg width="53px" height="53px" xmlns="http://www.w3.org/2000/svg" viewBox="0 0 511.41 511.99"><defs><style>.cls-1{fill:#fff;}</style></defs><title>money_back</title><g id="Слой_2" data-name="Слой 2"><g id="Capa_1" data-name="Capa 1"><path class="cls-1" d="M504.61,297.47a43,43,0,0,0-31.19-17.58c-9.85-.66-18.77,2.66-25.12,9.38-1.39,1.47-2.9,3.09-4.49,4.83a42.74,42.74,0,0,0-25.5-11.2c-9.85-.66-18.77,2.66-25.12,9.38-13.82,14.63-38.28,43.2-57.5,65.94a39.81,39.81,0,0,0-8-3.62c-9.18-4-135.79-58-191.9-58-90.65,0-132.3,48.73-134,50.8A7.51,7.51,0,0,0,13.28,357c.1-.11,9.82-11.51,29.7-22.73,18.32-10.34,49.28-22.68,92.8-22.68,53.91,0,185,56.37,186.29,56.94a42.87,42.87,0,0,1,7.09,3.3,24.33,24.33,0,0,1,5.49,5,24.54,24.54,0,0,1-8.72,37.58c-5.79,2.73-11.91,2.81-18,1.14l-82-22.58a7.51,7.51,0,1,0-4,14.49l81.88,22.55A39.61,39.61,0,0,0,355,394l22-2.32a7.52,7.52,0,0,0,5-2.67c.54-.65,54.47-65.39,77.21-89.46,9.45-10,26.33-2.92,33.16,6.62,10.5,14.67-2.55,30.68-6.8,35.24-20.88,22.4-59.16,68.55-66,76.86l-155.8,77.9-80.16-33.75a7.51,7.51,0,0,0-5.83,13.85l83.35,35.09a7.57,7.57,0,0,0,6.28-.2L427.7,431a7.51,7.51,0,0,0,2.43-1.94c.44-.53,44.26-53.59,66.46-77.41C512.93,334.17,516,313.39,504.61,297.47ZM372.42,377.1l-19.58,2.06a40.14,40.14,0,0,0-5.91-10.94c16.37-19.37,43-50.56,57.19-65.62a16.1,16.1,0,0,1,13.17-4.71,27.77,27.77,0,0,1,16.48,7.38C411.22,330.73,380.53,367.39,372.42,377.1Z"/><path class="cls-1" d="M146.7,446.94l-32.06-13.5a7.51,7.51,0,0,0-2.92-.59H7.51a7.52,7.52,0,0,0,0,15H110.2l30.66,12.91a7.51,7.51,0,0,0,5.83-13.85Z"/><path class="cls-1" d="M399.23,250.57l-32,4.57A150.67,150.67,0,0,0,407.8,151.8C407.8,68.1,339.71,0,256,0s-151.8,68.1-151.8,151.8a150.42,150.42,0,0,0,31.08,92,152.9,152.9,0,0,0,78.57,53.83A7.51,7.51,0,0,0,218,283.22c-58.16-16.78-98.78-70.82-98.78-131.43C119.24,76.38,180.59,15,256,15S392.77,76.38,392.77,151.8a135.77,135.77,0,0,1-41.08,97.75V209.91a7.52,7.52,0,0,0-15,0V266a7.6,7.6,0,0,0,8.58,7.44l56.11-8a7.51,7.51,0,1,0-2.12-14.88Z"/><path class="cls-1" d="M256,144.28h-8a16.53,16.53,0,0,1,0-33.07h32.06a7.51,7.51,0,1,0,0-15H263.52V87.67a7.52,7.52,0,0,0-15,0v8.52H248a31.56,31.56,0,1,0,0,63.12h8a16.53,16.53,0,1,1,0,33.06H223.94a7.51,7.51,0,1,0,0,15h24.55v8.52a7.52,7.52,0,0,0,15,0v-9.43A31.56,31.56,0,0,0,256,144.28Z"/></g></g></svg>