<svg width="50px" height="50px" xmlns="http://www.w3.org/2000/svg" viewBox="0 0 513 513"><defs><style>.cls-1{fill:#fff;stroke:#fff;stroke-miterlimit:10;}</style></defs><title>money</title><g id="Слой_2" data-name="Слой 2"><g id="Capa_1" data-name="Capa 1"><path class="cls-1" d="M196.5,60.5a10,10,0,1,0,10,10A10,10,0,0,0,196.5,60.5Z"/><path class="cls-1" d="M256.5,140.5a10,10,0,0,1,0-20c3.54,0,7.28,1.81,10.82,5.23a10,10,0,0,0,13.91-14.37,38.63,38.63,0,0,0-14.72-9.21V90.5a10,10,0,0,0-20,0v11.72a30,30,0,0,0,10,58.28,10,10,0,0,1,0,20c-4.27,0-8.88-2.69-13-7.57a10,10,0,0,0-15.31,12.87,41.46,41.46,0,0,0,18.29,13V210.5a10,10,0,0,0,20,0V198.78a30,30,0,0,0-10-58.28Z"/><path class="cls-1" d="M472.5,146.5a40,40,0,0,0-40,40v71.27a40,40,0,0,0-38.28,10.45l-67.07,67.07a49.65,49.65,0,0,0-14.65,35.37V429.5h-10a10,10,0,0,0-10,10v63a10,10,0,0,0,10,10h140a10,10,0,0,0,10-10v-63a10,10,0,0,0-10-10h-10v-4.72a10.07,10.07,0,0,1,2.93-7.07l62.42-62.42a49.68,49.68,0,0,0,14.65-35.36V186.5A40,40,0,0,0,472.5,146.5Zm-40,346h-120v-43h120Zm60-172.57a29.81,29.81,0,0,1-8.79,21.22l-62.42,62.42a30.21,30.21,0,0,0-8.79,21.21v4.72h-80V370.65a29.78,29.78,0,0,1,8.79-21.22l67.07-67.07a20,20,0,0,1,27.45-.77l.17.15c.23.2.44.4.66.62a20,20,0,0,1,0,28.28l-49.69,49.69a10,10,0,0,0,14.14,14.14l49.69-49.69a40,40,0,0,0,1.72-54.73V186.5a20,20,0,0,1,40,0Z"/><path class="cls-1" d="M210.5,429.5h-10V370.65a49.64,49.64,0,0,0-14.65-35.36l-67.07-67.07A40,40,0,0,0,80.5,257.77V186.5a40,40,0,0,0-80,0V319.93a49.68,49.68,0,0,0,14.65,35.36l62.42,62.42a10.07,10.07,0,0,1,2.93,7.07v4.72h-10a10,10,0,0,0-10,10v63a10,10,0,0,0,10,10h140a10,10,0,0,0,10-10v-63A10,10,0,0,0,210.5,429.5ZM29.29,341.15a29.82,29.82,0,0,1-8.79-21.22V186.5a20,20,0,0,1,40,0v83.56a40,40,0,0,0,1.72,54.72l50,50a10,10,0,0,0,14.14-14.14l-50-50a20,20,0,0,1,0-28.27c.22-.22.43-.43.66-.62l.17-.15a20,20,0,0,1,27.45.77l67.07,67.07a29.78,29.78,0,0,1,8.79,21.21V429.5h-80v-4.72a30.2,30.2,0,0,0-8.79-21.21ZM200.5,492.5H80.5v-43h120Z"/><path class="cls-1" d="M256.5.5c-82.71,0-150,67.29-150,150s67.29,150,150,150,150-67.29,150-150S339.21.5,256.5.5Zm0,280a130,130,0,1,1,130-130A130.15,130.15,0,0,1,256.5,280.5Z"/><path class="cls-1" d="M325.55,64.87c-26-21-60.08-28.93-93.42-21.75a10,10,0,1,0,4.21,19.55c27.41-5.91,55.35.56,76.64,17.76A90,90,0,1,1,177.14,108a10,10,0,0,0-17.62-9.46,110,110,0,1,0,166-33.68Z"/></g></g></svg>