<svg width="57px" height="44px" xmlns="http://www.w3.org/2000/svg" viewBox="0 0 64.33 51.39"><defs><style>.cls-1{fill:#fff;}</style></defs><title>partner</title><g id="Слой_2" data-name="Слой 2"><g id="Слой_1-2" data-name="Слой 1"><g id="Слой_1-3" data-name="Слой_1"><path class="cls-1" d="M51.2,9.23a.86.86,0,0,0,.29-.67A.82.82,0,0,0,51.2,8a.71.71,0,0,0-1.14,0h0a.82.82,0,0,0-.29.57.86.86,0,0,0,.29.67,1,1,0,0,0,1.14,0ZM64,14.56,49.68.29A.82.82,0,0,0,49.1,0a1.38,1.38,0,0,0-.67.19c-2.09,2-4.47,4.09-6.38,6.09A7.84,7.84,0,0,1,40,7.8a5.65,5.65,0,0,1-2.19.48,12.65,12.65,0,0,0-4,.57,11,11,0,0,0-3.14,2l-.29.29-.29-.29A10.5,10.5,0,0,0,27.6,9.14a10.77,10.77,0,0,0-3.24-.76h-.19L17.8,1.9a.86.86,0,0,0-.67-.29.82.82,0,0,0-.57.29L.29,18.18a.82.82,0,0,0-.29.57,1.38,1.38,0,0,0,.19.67c1.62,2.19,8.56,8.47,10.94,10.94l-.67.67a3.9,3.9,0,0,0-1.24,2.85,3.76,3.76,0,0,0,1.24,2.85,2.9,2.9,0,0,0,1.24.86,3.36,3.36,0,0,0,1.62.38h.38v.38A3.36,3.36,0,0,0,14.08,40a5.24,5.24,0,0,0,.86,1.33,4,4,0,0,0,1.33.86,4.31,4.31,0,0,0,1.52.29h.48v.38a4.45,4.45,0,0,0,.29,1.62,3.73,3.73,0,0,0,2.19,2.19,4.31,4.31,0,0,0,1.52.29h.48v.48A4.31,4.31,0,0,0,23,48.91a4,4,0,0,0,.86,1.33,4.2,4.2,0,0,0,2.85,1.14,4,4,0,0,0,2.85-1.14l.76-.76.76.76a4,4,0,0,0,6.57-1.33A4.31,4.31,0,0,0,38,47.39v-.48h.48A4.31,4.31,0,0,0,40,46.63a3.73,3.73,0,0,0,2.19-2.19,3.08,3.08,0,0,0,.29-1.62v-.38h.48a4,4,0,0,0,1.52-.29,3.23,3.23,0,0,0,1.33-.86,5.78,5.78,0,0,0,1-1.33A4.83,4.83,0,0,0,47,38.35V38h.38A3.36,3.36,0,0,0,49,37.59a3.84,3.84,0,0,0,2.47-3.71A4.2,4.2,0,0,0,50.34,31l-.76-.67.29-.38c3.62-3.62,3.9-3.81,4.09-4L64,15.8a.68.68,0,0,0,.29-.57.82.82,0,0,0-.29-.57ZM2.38,18.46,17.13,3.71l5.52,5.52-15.13,15L2.09,18.84Zm9.23,17.13a2.29,2.29,0,0,1-.67-1.71,2.23,2.23,0,0,1,.67-1.62l4.47-4.47a2.29,2.29,0,0,1,1.71-.67,2.27,2.27,0,0,1,2.28,2.28A2.09,2.09,0,0,1,19.41,31l-4.47,4.57a2.74,2.74,0,0,1-1.71.67A2.7,2.7,0,0,1,11.61,35.59Zm4.47,4.47a2.7,2.7,0,0,1-.67-1.62,2.74,2.74,0,0,1,.67-1.71l4.57-4.47a2.3,2.3,0,0,1,3.24,0,2.23,2.23,0,0,1,.67,1.62A2.58,2.58,0,0,1,24,35.5h0l-4.57,4.57a2.23,2.23,0,0,1-1.62.67A2.29,2.29,0,0,1,16.08,40.06Zm4.57,4.47a2.35,2.35,0,0,1-.76-1.62,2.18,2.18,0,0,1,.76-1.62l4.47-4.57a2.23,2.23,0,0,1,1.62-.67,2.29,2.29,0,0,1,1.71.67h0a2.7,2.7,0,0,1,.67,1.62,2.74,2.74,0,0,1-.67,1.71l-4.57,4.47a2.3,2.3,0,0,1-3.24,0ZM25.12,49a2.09,2.09,0,0,1-.67-1.62,2.23,2.23,0,0,1,.67-1.62L29.6,41.3a2.38,2.38,0,0,1,1.71-.76,2.35,2.35,0,0,1,1.62.76,2.09,2.09,0,0,1,.67,1.62,2.23,2.23,0,0,1-.67,1.62L28.45,49a2.38,2.38,0,0,1-1.71.76A2.35,2.35,0,0,1,25.12,49Zm10.47,0a2.35,2.35,0,0,1-1.62.76A2.18,2.18,0,0,1,32.36,49l-.76-.67,2.47-2.57c.1-.1.19-.19.29-.19s.1-.19.1-.29l.38-.38.76.86a2.23,2.23,0,0,1,.67,1.62A2.09,2.09,0,0,1,35.59,49ZM49.1,35.59a2.7,2.7,0,0,1-1.62.67,2.74,2.74,0,0,1-1.71-.67L40,29.69a.7.7,0,0,0-.57-.19.8.8,0,0,0-.67.19,1.35,1.35,0,0,0-.19.57,1.38,1.38,0,0,0,.19.67l5.9,5.81a2.29,2.29,0,0,1,.67,1.71,2.23,2.23,0,0,1-.67,1.62,2.29,2.29,0,0,1-1.71.67,2.23,2.23,0,0,1-1.62-.67l-5.81-5.9a1.38,1.38,0,0,0-.67-.19,1.35,1.35,0,0,0-.57.19.86.86,0,0,0-.29.67.82.82,0,0,0,.29.57l5.81,5.9a2.18,2.18,0,0,1,.76,1.62,2.35,2.35,0,0,1-.76,1.62,2.89,2.89,0,0,1-.67.48,1.72,1.72,0,0,1-1,.19A2.64,2.64,0,0,1,36.26,44a7.78,7.78,0,0,0-.86-.76l-.1-.19v-.19A4.31,4.31,0,0,0,35,41.3a6.11,6.11,0,0,0-1-1.24,3.62,3.62,0,0,0-1.24-.86,3.25,3.25,0,0,0-1.62-.29h-.38v-.48a2.79,2.79,0,0,0-.38-1.52,3.23,3.23,0,0,0-.86-1.33,3.69,3.69,0,0,0-2.85-1.24h-.48v-.48A4.29,4.29,0,0,0,25.12,31a4.29,4.29,0,0,0-2.85-1.14h-.48v-.48a4.31,4.31,0,0,0-.29-1.52,4,4,0,0,0-.86-1.33,4.2,4.2,0,0,0-2.85-1.14,4,4,0,0,0-2.85,1.14l-2.57,2.57L8.76,25.5,24.17,10.09h.19a6.3,6.3,0,0,1,2.47.67,5.43,5.43,0,0,1,2,1.24l.38.29-3.9,3.9a4.78,4.78,0,0,0-1.43,3.33,4.93,4.93,0,0,0,1.33,3.33,5.11,5.11,0,0,0,3.33,1.33,4.93,4.93,0,0,0,3.33-1.33l3.9-3.9L49.1,32.26a2.23,2.23,0,0,1,.67,1.62,2.29,2.29,0,0,1-.67,1.71Zm-1-6.76L36.92,17.7l1.24-1.14a.86.86,0,0,0,.29-.67,1,1,0,0,0-.86-.86.86.86,0,0,0-.67.29L30.64,21.6a3,3,0,0,1-4.19-4.19l5.23-5.14a6.34,6.34,0,0,1,2.66-1.81,9.22,9.22,0,0,1,3.43-.57,6.57,6.57,0,0,0,2.38-.38,9,9,0,0,0,2.09-1.14l.38-.29c4.38,4.57,8.76,9,13.23,13.61l-7.52,7.42Zm8.66-8.66L43.87,6.95,49,2,62.24,15.23,57,20.46Zm-.67-4.76a.71.71,0,0,0,1.14,0,.68.68,0,0,0,.29-.57.82.82,0,0,0-.29-.57l-2.47-2.57a.8.8,0,0,0-.67-.19.7.7,0,0,0-.57.19.82.82,0,0,0-.29.57.86.86,0,0,0,.29.67ZM8.37,19.13l3.81-3.81a.82.82,0,0,0,.29-.57.68.68,0,0,0-.29-.57.82.82,0,0,0-.57-.29.68.68,0,0,0-.57.29L7.23,18a.68.68,0,0,0-.29.57.82.82,0,0,0,.29.57.68.68,0,0,0,.57.29A.82.82,0,0,0,8.37,19.13Zm7.52-7.33c.19-.1.19-.38.19-.57s0-.48-.19-.57a.82.82,0,0,0-.57-.29.86.86,0,0,0-.67.29,1,1,0,0,0,0,1.14h0a.86.86,0,0,0,.67.29A.82.82,0,0,0,15.89,11.8Z"/></g></g></g></svg>