<svg width="30px" height="30px" xmlns="http://www.w3.org/2000/svg" viewBox="0 0 512 512"><defs><style>.cls-1{fill:#6c718b;}</style></defs><title>plane</title><g id="Слой_2" data-name="Слой 2"><g id="Слой_1-2" data-name="Слой 1"><path class="cls-1" d="M241.22,256.64a10,10,0,1,0,14.14,0A10,10,0,0,0,241.22,256.64Z"/><path class="cls-1" d="M400.23,29.25c-17.16,13.29-21.84,20.13-82.7,80.36L281,103.68l16.74-16.74a30,30,0,1,0-42.43-42.43L208.07,91.8,42.69,64.87a33.74,33.74,0,0,0-25.2,60.63L182.29,244.85l-30.86,30.86c-10.57,10.57-21.7,25.12-33.14,43.28l-76.86-22.6A32.32,32.32,0,0,0,13.93,354l63,43.62C66,421.8,59.3,439.3,59,440.11A10,10,0,0,0,71.89,453c.81-.3,18.31-7,42.52-17.95l43.62,63a32.32,32.32,0,0,0,57.58-27.52L193,393.7c18.17-11.45,32.71-22.57,43.28-33.14l30.86-30.86L386.5,494.51a33.74,33.74,0,0,0,60.63-25.21L420.2,303.93l47.29-47.29a30,30,0,0,0-42.42-42.43L408.32,231l-5.94-36.48c60.29-60.92,67-65.49,80.32-82.65l.05-.07c30.84-40,38.06-80.34,17.95-100.46S440.22-1.61,400.23,29.25ZM269.5,58.65a10,10,0,0,1,14.15,14.14L256.72,99.71l-24.32-4ZM29.21,109.3A13.74,13.74,0,0,1,39.48,84.61L300.11,127,196.62,230.53ZM23.61,318.69a12.32,12.32,0,0,1,12.19-3.11l71.89,21.14c-7.35,12.88-14.77,27.1-22.17,42.49l-60.2-41.68A12.32,12.32,0,0,1,23.61,318.69Zm169.71,169.7a12.33,12.33,0,0,1-18.85-1.7l-41.68-60.21c15.41-7.41,29.63-14.83,42.49-22.16l21.14,71.88A12.32,12.32,0,0,1,193.32,488.39Zm245.89-260a10,10,0,1,1,14.14,14.15l-37.11,37.1-4-24.32ZM427.39,472.51a13.74,13.74,0,0,1-24.69,10.28L281.47,315.38,385,211.89ZM222.15,346.42c-11,11-27.11,22.89-47.87,35.32-27,16.16-58.92,31.46-87.72,43.7,12.57-29.59,28.16-62,44.67-89.33,12.07-20,23.63-35.54,34.36-46.26,244.27-243.69,229.8-231.12,244.63-243,16.45-1.05,30.92,3.83,41,13.91s15,24.56,13.91,41C453.24,116.65,465.66,102.32,222.15,346.42ZM482.24,75.51a66,66,0,0,0-45.74-45.75c14.47-7.34,38.84-15.56,50.07-4.34C495.43,34.3,493.23,53.83,482.24,75.51Z"/><path class="cls-1" d="M297.79,200.07l-28.28,28.28a10,10,0,0,0,14.14,14.14l28.28-28.28a10,10,0,0,0-14.14-14.14Z"/><path class="cls-1" d="M354.36,143.5l-28.29,28.29a10,10,0,0,0,14.14,14.14l28.29-28.29a10,10,0,0,0-14.14-14.14Z"/></g></g></svg>