<svg width="50px" height="42px" xmlns="http://www.w3.org/2000/svg" viewBox="0 0 512 433.84"><defs><style>.cls-1{fill:#fff;}</style></defs><title>profits</title><g id="Слой_2" data-name="Слой 2"><g id="Capa_1" data-name="Capa 1"><path class="cls-1" d="M416.2,44.68,410.83,6.29A7.3,7.3,0,0,0,402.5.08L360.2,6.56A7.3,7.3,0,0,0,362.41,21l24.65-3.78C354.1,58,318.65,92.68,281.52,120.49c-32.31,24.2-66,43.27-100,56.69C123.59,200,84,198.52,83.63,198.51a7.3,7.3,0,0,0-.7,14.58c.24,0,1.23.05,2.94.05,10.52,0,47.93-1.61,100.08-22,35.37-13.84,70.27-33.53,103.74-58.53C328.17,103.86,364.83,68,398.83,25.87l2.92,20.83A7.3,7.3,0,0,0,409,53a7.38,7.38,0,0,0,1-.07A7.3,7.3,0,0,0,416.2,44.68Z"/><path class="cls-1" d="M498.53,393.66h-59a88.82,88.82,0,0,0,13.64-11.17,87.93,87.93,0,0,0-19.47-139.11V213.92a7.3,7.3,0,0,0-14.6,0v23A87.76,87.76,0,0,0,358,238.7V149.05a1.71,1.71,0,0,1,1.71-1.71h57.75a1.71,1.71,0,0,1,1.71,1.71v18.12a7.3,7.3,0,1,0,14.6,0V149.05a16.33,16.33,0,0,0-16.31-16.31H359.66a16.33,16.33,0,0,0-16.31,16.31v97.24a88,88,0,0,0-14.59,136.19,88.88,88.88,0,0,0,13.64,11.17H296.32V215.28A16.33,16.33,0,0,0,280,199H222.26a16.33,16.33,0,0,0-16.31,16.31V393.66h-47V275.31A16.33,16.33,0,0,0,142.6,259H84.85a16.33,16.33,0,0,0-16.31,16.31V393.66H38.48V18.33A13.48,13.48,0,0,0,25,4.86H13.47A13.48,13.48,0,0,0,0,18.33V70.14a7.3,7.3,0,0,0,14.6,0V19.46h9.29V394.79a13.48,13.48,0,0,0,13.47,13.47H497.4v11H14.6v-303a7.3,7.3,0,0,0-14.6,0V420.37a13.48,13.48,0,0,0,13.47,13.47H498.53A13.48,13.48,0,0,0,512,420.37V407.13A13.48,13.48,0,0,0,498.53,393.66Zm-354.22,0H83.14V275.31a1.71,1.71,0,0,1,1.71-1.71H142.6a1.71,1.71,0,0,1,1.71,1.71V393.66Zm76.23,0V215.28a1.71,1.71,0,0,1,1.71-1.71H280a1.71,1.71,0,0,1,1.71,1.71V393.66H220.55Zm202.68-7.46a73.83,73.83,0,0,1-23.61,6.94l-.41.05-1.68.17c-.85.08-1.71.14-2.57.19l-.81,0c-1.05,0-2.11.08-3.16.08s-2.12,0-3.17-.08l-1,0c-.8,0-1.59-.11-2.38-.17l-2-.2-1.4-.17c-.67-.09-1.33-.19-2-.3l-.26,0a73.28,73.28,0,0,1-24.51-8.8l-.12-.06a73.75,73.75,0,0,1-15.1-11.62,73.4,73.4,0,0,1,17.55-116.76l.54-.28a73.69,73.69,0,0,1,61.14-3l.46.18c.91.37,1.81.77,2.71,1.17l1.07.5a73.42,73.42,0,0,1,.94,132.07Z"/><path class="cls-1" d="M394.37,313.21v-26c9,.64,12.29,4.74,15.37,4.74,3.84,0,5.64-4.87,5.64-7.3,0-6.27-12.29-9-21-9.22V272c0-1.54-1.92-2.95-3.84-2.95-2.18,0-3.71,1.41-3.71,2.95v3.71c-12.17,1.28-24.33,7.68-24.33,23.82,0,16.39,12.81,21,24.33,25.1V354.7c-13.06-1-16.52-10-20.74-10-3.2,0-5.89,4.23-5.89,7.3,0,6.27,10.76,14.86,26.64,15.11h0v4c0,1.54,1.54,2.95,3.71,2.95,1.92,0,3.84-1.41,3.84-2.95v-4.35c13.83-1.92,23.31-10.63,23.31-26.38C417.68,322.94,405.51,317.3,394.37,313.21Zm-6.79-2.43c-6.79-2.56-12.29-5.25-12.29-12.55,0-6.66,5.12-9.86,12.29-10.76Zm6,43.67v-27c6.27,2.69,11.27,6.27,11.27,14.34C404.87,349.06,400.52,353.16,393.61,354.44Z"/></g></g></svg>