<svg width="45px" height="52px" xmlns="http://www.w3.org/2000/svg" viewBox="0 0 45.67 53.99"><defs><style>.cls-1{fill:#fff;}</style></defs><title>profiles</title><g id="Слой_2" data-name="Слой 2"><g id="Слой_1-2" data-name="Слой 1"><g id="Слой_1-3" data-name="Слой_1"><path class="cls-1" d="M34.2,0H3a3,3,0,0,0-2,.92A3,3,0,0,0,0,3V13.87c0,.18.18.37.18.55.18.18.37.18.74.18a.68.68,0,0,0,.55-.18.68.68,0,0,0,.18-.55V3A1.41,1.41,0,0,1,2,2,1.41,1.41,0,0,1,3,1.66H34.2a1.41,1.41,0,0,1,.92.37A1.41,1.41,0,0,1,35.5,3V42.53c0,.37-.18.55-.37.92a1.41,1.41,0,0,1-.92.37H3A1.41,1.41,0,0,1,2,43.45c-.18-.37-.37-.55-.37-.92V22.74a.68.68,0,0,0-.18-.55A.68.68,0,0,0,.92,22c-.37,0-.55,0-.74.18,0,.18-.18.37-.18.55V42.53a3,3,0,0,0,.92,2,3,3,0,0,0,2,.92H34.2a3.18,3.18,0,0,0,3-3V3a3,3,0,0,0-.92-2A3,3,0,0,0,34.2,0ZM31.06,34.57H18.67c-.37,0-.55,0-.74.18a.68.68,0,0,0-.18.55c0,.37,0,.55.18.74.18,0,.37.18.74.18H31.06c.18,0,.37-.18.55-.18.18-.18.18-.37.18-.74a.65.65,0,0,0-.74-.74ZM13.5,33.1a1,1,0,0,0-.74-.37c-.18,0-.37.18-.55.37l-3,3L7.77,34.57a.68.68,0,0,0-.55-.18.68.68,0,0,0-.55.18c-.18.18-.37.37-.37.55s.18.55.37.55l2,2.22a.18.18,0,0,1,.18.18h.74a.18.18,0,0,1,.18-.18l3.7-3.7a.92.92,0,0,0,0-1.11Zm16.83-15h-7.4a.65.65,0,0,0-.74.74c0,.37,0,.55.18.74.18,0,.37.18.55.18h7.4c.37,0,.55-.18.74-.18,0-.18.18-.37.18-.74,0-.18-.18-.37-.18-.55C30.88,18.12,30.69,18.12,30.32,18.12Zm0-5.18h-7.4c-.18,0-.37.18-.55.18-.18.18-.18.37-.18.74a.65.65,0,0,0,.74.74h7.4c.37,0,.55,0,.74-.18,0-.18.18-.37.18-.55,0-.37-.18-.55-.18-.74C30.88,13.13,30.69,12.94,30.32,12.94Zm0-5h-7.4a.65.65,0,0,0-.74.74c0,.18,0,.55.18.55.18.18.37.37.55.37h7.4a1,1,0,0,0,.74-.37,1.86,1.86,0,0,0,.18-.55c0-.18-.18-.37-.18-.55C30.88,8,30.69,8,30.32,8Zm.74,18.49H18.67c-.37,0-.55.18-.74.18-.18.18-.18.37-.18.74a.68.68,0,0,0,.18.55c.18.18.37.18.74.18H31.06a.65.65,0,0,0,.74-.74c0-.37,0-.55-.18-.74C31.43,26.62,31.25,26.44,31.06,26.44ZM13.5,25c-.18-.18-.37-.18-.74-.18a.68.68,0,0,0-.55.18l-3,3L7.77,26.44a.68.68,0,0,0-.55-.18.68.68,0,0,0-.55.18c-.18.18-.37.37-.37.55a1,1,0,0,0,.37.74l2,2,.18.18h.74l.18-.18,3.7-3.7c.18,0,.18-.37.18-.55A.68.68,0,0,0,13.5,25ZM17,8H6.84c-.18,0-.55,0-.55.18-.18.18-.37.37-.37.55V18.86a1,1,0,0,0,.37.74,1.86,1.86,0,0,0,.55.18H17c.18,0,.37-.18.55-.18a1,1,0,0,0,.37-.74V8.69c0-.18-.18-.37-.37-.55A.68.68,0,0,0,17,8ZM15.9,18.12H7.58V9.61h8.51v8.51Zm29-9.61c-.37,0-.55,0-.74.18s-.18.37-.18.74V51c0,.37-.18.55-.37.92a1.41,1.41,0,0,1-.92.37H9.43c-.37,0-.55,0-.74.18,0,.18-.18.37-.18.55,0,.37.18.55.18.74.18,0,.37.18.74.18H42.71a2.65,2.65,0,0,0,2-.92,3,3,0,0,0,.92-2V9.43c0-.37,0-.55-.18-.74A.68.68,0,0,0,44.93,8.51ZM40.68,4.25c-.37,0-.55.18-.74.18-.18.18-.18.37-.18.74v41.6c0,.37-.18.55-.37.92a1.41,1.41,0,0,1-.92.37h-29c-.37,0-.55,0-.74.18,0,.18-.18.37-.18.55,0,.37.18.55.18.74.18,0,.37.18.74.18h29a3.18,3.18,0,0,0,3-3V5.18c0-.37,0-.55-.18-.74C41,4.44,40.86,4.25,40.68,4.25Zm-34.94,44c-.18,0-.18-.18-.37-.18H4.81c-.18,0-.18.18-.37.18,0,.18,0,.18-.18.37v.55c.18.18.18.18.18.37.18,0,.18,0,.37.18h.55c.18-.18.18-.18.37-.18,0-.18.18-.18.18-.37v-.55C5.92,48.44,5.73,48.44,5.73,48.26ZM1.48,17.93c-.18,0-.18-.18-.37-.18H.55c-.18,0-.18.18-.37.18,0,.18,0,.18-.18.37v.55c.18.18.18.18.18.37.18,0,.18,0,.37.18h.55c.18-.18.18-.18.37-.18,0-.18.18-.18.18-.37V18.3C1.66,18.12,1.48,18.12,1.48,17.93Z"/></g></g></g></svg>