<?xml version="1.0" encoding="UTF-8"?>
<!DOCTYPE svg PUBLIC "-//W3C//DTD SVG 1.1//EN" "http://www.w3.org/Graphics/SVG/1.1/DTD/svg11.dtd">
<!-- Creator: CorelDRAW X8 -->
<svg xmlns="http://www.w3.org/2000/svg" xml:space="preserve" width="105px" height="105px" version="1.1" style="shape-rendering:geometricPrecision; text-rendering:geometricPrecision; image-rendering:optimizeQuality; fill-rule:evenodd; clip-rule:evenodd"
viewBox="0 0 351 351"
 xmlns:xlink="http://www.w3.org/1999/xlink">
 <defs>
  <style type="text/css">
   <![CDATA[
    .fil0 {fill:#0A1136}
    .fil1 {fill:#AE9A66}
   ]]>
  </style>
 </defs>
 <g id="Слой_x0020_1">
  <metadata id="CorelCorpID_0Corel-Layer"/>
  <path class="fil0" d="M21 0l309 0c6,0 11,2 15,6 4,4 6,9 6,15l0 309c0,6 -2,11 -6,15 -4,4 -9,6 -15,6l-309 0c-6,0 -11,-2 -15,-6 -4,-4 -6,-9 -6,-15l0 -309c0,-6 2,-11 6,-15 4,-4 9,-6 15,-6zm31 306l56 0c2,0 4,1 6,2 1,1 2,3 2,5 0,2 -1,4 -2,6 -2,1 -4,2 -6,2l-56 0c-6,0 -12,-2 -15,-6 -4,-4 -7,-9 -7,-15l0 -30c0,-2 1,-4 3,-5 1,-1 3,-2 5,-2 2,0 4,1 5,2 2,1 2,3 2,5l0 30c0,1 1,3 2,4 1,1 3,2 5,2zm-19 -68c1,-2 3,-3 5,-3 2,0 4,1 5,3 2,1 2,3 2,5 0,2 0,4 -2,5 -1,2 -3,3 -5,3 -2,0 -4,-1 -5,-3 -2,-1 -3,-3 -3,-5 0,-2 1,-4 3,-5zm210 -208l57 0c6,0 11,3 15,7 4,3 6,9 6,15l0 29c0,2 -1,4 -2,5 -2,2 -4,2 -6,2 -2,0 -4,0 -5,-2 -1,-1 -2,-3 -2,-5l0 -29c0,-2 -1,-4 -2,-5 -1,-1 -3,-2 -4,-2l-57 0c-2,0 -4,0 -5,-2 -2,-1 -3,-3 -3,-5 0,-2 1,-4 3,-5 1,-2 3,-3 5,-3zm65 73c1,-1 3,-2 5,-2 2,0 4,1 6,2 1,1 2,3 2,5 0,2 -1,4 -2,6 -2,1 -4,2 -6,2 -2,0 -4,-1 -5,-2 -1,-2 -2,-4 -2,-6 0,-2 1,-4 2,-5zm-291 -86c-1,1 -2,3 -2,4l0 147 42 0c0,-1 0,-2 0,-3 0,-1 0,-2 0,-3 0,-2 0,-5 0,-7 2,-8 6,-15 12,-20 7,-5 14,-8 23,-8 2,0 4,0 7,1 6,1 12,4 17,9 5,4 8,10 10,17 0,2 0,5 0,7 1,3 0,5 0,7l42 0 0 -53c0,-1 0,-2 1,-4 1,-1 2,-2 3,-2 1,-1 2,-1 4,-1 1,0 2,0 3,1 2,1 4,2 6,2 4,1 9,0 12,-1 4,-2 7,-5 9,-8 1,-2 2,-4 3,-6 0,-2 0,-3 0,-4 0,-5 -2,-10 -5,-13 -2,-3 -6,-6 -11,-7 -1,0 -2,0 -4,0 -1,0 -3,0 -5,1 -2,0 -3,1 -5,1l0 1c-1,0 -2,0 -3,0 -2,1 -3,0 -4,-1 -1,0 -2,-1 -3,-2 -1,-1 -1,-3 -1,-4 -1,-17 0,-36 0,-53l-147 0c-1,0 -3,1 -4,2zm4 319l147 0 0 -42c-1,0 -2,0 -3,0 -1,0 -2,1 -3,1 -2,0 -5,-1 -7,-1 -8,-2 -15,-6 -20,-12 -5,-6 -8,-14 -8,-22 0,-3 0,-5 1,-8 2,-9 7,-17 15,-22 7,-4 16,-6 25,-5l0 -42c-17,0 -36,1 -53,0 -1,0 -2,0 -4,-1 -1,-1 -2,-1 -2,-3 -1,-1 -1,-2 -1,-3 0,-2 0,-3 1,-4 1,-2 2,-4 2,-7 0,-2 0,-5 0,-8 -1,-3 -3,-7 -6,-9 -2,-3 -6,-5 -9,-5 -2,-1 -3,-1 -4,-1 -5,0 -10,2 -13,5 -3,3 -6,6 -7,11 0,1 0,3 0,4 0,2 0,3 1,5 0,2 1,3 1,5l1 0c0,1 0,2 1,3 0,2 -1,3 -2,4 0,2 -1,3 -2,3 -1,1 -3,1 -4,1 -16,1 -37,0 -53,0l0 147c0,2 1,3 2,4 1,1 3,2 4,2zm313 -2c1,-1 2,-2 2,-4l0 -147 -42 0c0,2 1,5 0,7 0,2 0,5 0,8 -2,6 -5,12 -10,16 -5,5 -11,8 -17,9 -3,1 -5,1 -7,1 -9,0 -16,-3 -22,-8 -7,-5 -11,-12 -13,-20 0,-2 0,-4 0,-7 0,-1 0,-2 0,-3 0,-1 0,-2 0,-3l-42 0 0 53c0,1 0,3 -1,4 0,1 -1,2 -3,2 -1,1 -2,2 -3,2 -2,0 -3,-1 -4,-1l0 0c-2,-2 -4,-2 -6,-3 -4,-1 -9,0 -12,2 -4,1 -7,4 -9,8 -1,1 -2,3 -2,5 -1,2 -1,3 -1,5 0,4 2,9 5,12 3,4 7,6 11,7 1,0 3,0 4,0 2,0 3,0 5,0 2,-1 3,-1 5,-2l0 0c1,-1 2,-1 4,-1 1,0 2,0 3,1 2,0 3,1 3,3 1,1 1,2 1,3 1,17 0,36 0,53l147 0c2,0 3,-1 4,-2zm-51 -166l53 0 0 -147c0,-1 -1,-3 -2,-4 -1,-1 -2,-2 -4,-2l-147 0 0 42c1,0 2,0 3,0 1,0 2,0 3,0 3,0 5,0 7,0 8,2 15,6 20,12 5,7 8,14 8,23 0,2 0,4 -1,7 -1,9 -7,17 -15,22 -7,4 -16,7 -25,5l0 42 53 0c1,0 3,0 4,1 1,1 2,2 3,3 0,1 1,2 1,4 0,1 -1,2 -1,3 -1,2 -2,3 -2,5 -1,2 -1,4 -1,5 0,2 0,3 0,4 1,5 4,9 7,11 3,3 8,5 13,5 1,0 2,0 4,0 3,-1 7,-3 9,-6 3,-2 5,-5 6,-9 0,-3 0,-5 0,-8 0,-2 -1,-5 -2,-7l0 0c-1,-1 -1,-2 -1,-3 0,-2 0,-3 1,-4 0,-1 1,-2 3,-3 1,-1 2,-1 3,-1z"/>
  <path class="fil1" d="M308 238c1,-2 3,-3 5,-3 2,0 4,1 6,3 1,1 2,3 2,5l0 57c0,6 -2,11 -6,15 -4,4 -9,6 -15,6l-30 0c-2,0 -4,-1 -5,-2 -1,-2 -2,-4 -2,-6 0,-2 1,-4 2,-5 1,-1 3,-2 5,-2l30 0c1,0 3,-1 4,-2 1,-1 2,-3 2,-4l0 -57c0,-2 1,-4 2,-5zm-256 -208l29 0c2,0 4,1 5,3 2,1 2,3 2,5 0,2 0,4 -2,5 -1,2 -3,2 -5,2l-29 0c-2,0 -4,1 -5,2 -1,1 -2,3 -2,5l0 56c0,2 0,4 -2,6 -1,1 -3,2 -5,2 -2,0 -4,-1 -5,-2 -2,-2 -3,-4 -3,-6l0 -56c0,-6 3,-12 7,-15 3,-4 9,-7 15,-7zm51 3c1,-2 3,-3 5,-3 2,0 4,1 6,3 1,1 2,3 2,5 0,2 -1,4 -2,5 -2,2 -4,2 -6,2 -2,0 -4,0 -5,-2 -1,-1 -2,-3 -2,-5 0,-2 1,-4 2,-5zm135 275c1,-1 3,-2 5,-2 2,0 4,1 5,2 2,1 3,3 3,5 0,2 -1,4 -3,6 -1,1 -3,2 -5,2 -2,0 -4,-1 -5,-2 -2,-2 -3,-4 -3,-6 0,-2 1,-4 3,-5z"/>
 </g>
</svg>
