<svg width="39px" height="46px" xmlns="http://www.w3.org/2000/svg" viewBox="0 0 53.99 63.74"><defs><style>.cls-1{fill:#fff;}</style></defs><title>shopping-bag</title><g id="Слой_2" data-name="Слой 2"><g id="Слой_1-2" data-name="Слой 1"><g id="Слой_1-3" data-name="Слой_1"><path class="cls-1" d="M1.81,23.36.11,53.65c.11,3.06,0,6.12-.11,9.3v.34c.11.11.11.23.23.23s.11.11.23.23H53.53c0-.11.11-.11.23-.23a.4.4,0,0,0,.11-.23.42.42,0,0,0,.11-.34L51.72,20.42v-.23c0-.11,0-.11-.11-.23l-3.29-5.44c0-.11-.11-.11-.23-.23s-.23-.11-.34-.11H45.48l.79-3.63v-.34c0-.11,0-.11-.11-.23A.4.4,0,0,0,46,9.75a.42.42,0,0,0-.34-.11l-10-2.38V7a8.69,8.69,0,0,0-3.18-5A8.8,8.8,0,0,0,27,0a8.39,8.39,0,0,0-4.08,1,8.73,8.73,0,0,0-3.18,2.61v.11l-.11.11V4L7.15,5.44a2.48,2.48,0,0,0-.57.34.85.85,0,0,0-.11.57l.91,7.83H6.24c-.11,0-.34.11-.45.11s-.11.11-.23.23A33.83,33.83,0,0,0,2.5,20.07,20.82,20.82,0,0,0,1.81,23.36Zm33.34,4H35a.42.42,0,0,0-.34.11c-.11,0-.11.11-.23.23l-.34.45-.23-.57c-.11-.11-.11-.11-.11-.23a.42.42,0,0,1-.11-.34,1.44,1.44,0,0,1,.45-1,1.23,1.23,0,0,1,1-.45,1.11,1.11,0,0,1,1,.45,1.44,1.44,0,0,1,.45,1,.42.42,0,0,1-.11.34.42.42,0,0,1-.11.34l-.34.57-.23-.57c-.11-.11-.23-.23-.34-.23A.42.42,0,0,0,35.16,27.33Zm-.68,2.72v4a7.45,7.45,0,0,1-2.27,5.33A7.28,7.28,0,0,1,27,41.51a7.55,7.55,0,0,1-5.33-2.15A7.35,7.35,0,0,1,19.51,34v-4.2l.23-.11a3.45,3.45,0,0,0,1.47-1,3.2,3.2,0,0,0,.45-1.7,3,3,0,0,0-.79-2,2.84,2.84,0,0,0-2-.91,2.9,2.9,0,0,0-2.15.91,3,3,0,0,0-.79,2,3.2,3.2,0,0,0,.45,1.7,4.32,4.32,0,0,0,1.47,1l.23.11V34a8.91,8.91,0,0,0,9,9,8.73,8.73,0,0,0,6.24-2.61A8.64,8.64,0,0,0,36,34v-4.2l.23-.11a3.1,3.1,0,0,0,1.36-1,3.37,3.37,0,0,0,.57-1.7A3.11,3.11,0,0,0,35.16,24a2.84,2.84,0,0,0-2,.91,2.66,2.66,0,0,0-.91,2,3.37,3.37,0,0,0,.57,1.7,3.1,3.1,0,0,0,1.36,1l.34.11ZM19.39,27.67a.24.24,0,0,0-.23-.23.42.42,0,0,0-.34-.11c-.23,0-.34,0-.45.11a.24.24,0,0,0-.23.23l-.34.57-.34-.57c0-.11-.11-.23-.11-.34V27a1.11,1.11,0,0,1,.45-1,1.11,1.11,0,0,1,1-.45A1.36,1.36,0,0,1,20.19,27v.34c0,.11-.11.23-.11.34l-.34.57ZM4,21.1H50.36l2,41.17H1.47C2.27,48.54,2.95,34.82,3.63,21.1Zm31.76-1.7-2-8.39a.4.4,0,0,1-.11-.23c-.11,0-.11-.11-.23-.23h-.23a.21.21,0,0,0-.34,0l-2.38.57.79-3.4,13.5,3.18-2,8.73H35.73Zm-7.15-7.94-1.47.45L26.2,4c0-.11,0-.23-.11-.23A.4.4,0,0,0,26,3.52a.42.42,0,0,0-.34-.11c0-.11-.11-.11-.23-.11l-4,.45,1-.68a5.65,5.65,0,0,1,2.15-1.13A5.58,5.58,0,0,1,27,1.47a7.13,7.13,0,0,1,4.2,1.36,6.51,6.51,0,0,1,2.72,3.52l.23.57-3.29-.79h-.34a.4.4,0,0,1-.23.11c-.11,0-.11.11-.23.23a.4.4,0,0,0-.11.23l-1.13,4.76Zm-3.18.79L15.2,14.74a1.57,1.57,0,0,0-.45.34.85.85,0,0,0-.11.57l1,4H9.53L8.05,6.92l16.79-2,.79,7.37ZM17,19.39,16.22,16l16.22-3.86,1.81,7.49H17.13Zm-9.41.23H4.2l2.38-4h1l.45,4Zm36.63-.34.91-3.63H47.3l2.38,4H44.12Z"/></g></g></g></svg>