<svg width="43px" height="50px" xmlns="http://www.w3.org/2000/svg" viewBox="0 0 199.91 230.84"><defs><style>.cls-1{fill:#fff;}</style></defs><title>smartphone</title><g id="Слой_2" data-name="Слой 2"><g id="Слой_1-2" data-name="Слой 1"><g id="Слой_1-3" data-name="Слой_1"><path class="cls-1" d="M61.26,189.68A14.79,14.79,0,1,0,71.66,194,14.73,14.73,0,0,0,61.26,189.68Zm0,23.24a8.25,8.25,0,0,1-6-2.49,8.48,8.48,0,1,1,12,0A8.22,8.22,0,0,1,61.26,212.91Z"/><path class="cls-1" d="M76.69,18.31h3.9a3.71,3.71,0,0,0,2.49-1,3.52,3.52,0,0,0-2.49-6h-3.9a3.48,3.48,0,0,0-2.49,1,3.71,3.71,0,0,0-1,2.49,3.51,3.51,0,0,0,3.52,3.52Zm-27.08,0H65.1a3.71,3.71,0,0,0,2.49-1,3.52,3.52,0,0,0-2.49-6H49.61a3.52,3.52,0,0,0-2.49,6A3.71,3.71,0,0,0,49.61,18.31Z"/><path class="cls-1" d="M199.91,46.47H130.21V16.36A16.37,16.37,0,0,0,113.85,0H16.36A16.37,16.37,0,0,0,0,16.36V214.48a16.27,16.27,0,0,0,16.36,16.36h97.49a16.37,16.37,0,0,0,16.36-16.3V126.31h69.71ZM16.36,6.34h97.49a10,10,0,0,1,10,10v6.88H6.34V16.36a10,10,0,0,1,10-10Zm97.49,218.22H16.36a10.08,10.08,0,0,1-10-10V184.42H123.87v30.11a10.08,10.08,0,0,1-10,10Zm9.32-46.47H6.34V29.57H123.87v16.9H54.22v79.84H69.71v26.43l35.15-26.43h19v51.78ZM192.87,120H102.75L76,140.06V120H60.5V52.75H193.58V120Z"/><path class="cls-1" d="M77.4,96.08a3,3,0,0,0,1,2.22,3,3,0,0,0,2.22.92h92.89a3.14,3.14,0,0,0,3.2-3.14,3.15,3.15,0,0,0-3.2-3.2H80.59a3.2,3.2,0,0,0-2.22.92A3.24,3.24,0,0,0,77.4,96.08Zm3.2-16.19h38.73a3.3,3.3,0,0,0,2.22-.92,3.1,3.1,0,0,0,.92-2.27,3.07,3.07,0,0,0-.92-2.22,3.3,3.3,0,0,0-2.22-.92H80.59a3.2,3.2,0,0,0-2.22.92,3.08,3.08,0,0,0,0,4.5A3.2,3.2,0,0,0,80.59,79.89Z"/></g></g></g></svg>