<svg width="50px" height="48px" xmlns="http://www.w3.org/2000/svg" viewBox="0 0 512 489.62"><defs><style>.cls-1{fill:#fff;}</style></defs><title>tax</title><g id="Слой_2" data-name="Слой 2"><g id="Capa_1" data-name="Capa 1"><path class="cls-1" d="M104.87,402.78A36.81,36.81,0,1,0,106,430.93,36.57,36.57,0,0,0,104.87,402.78ZM92.45,425.95a22.36,22.36,0,1,1-.7-17.1A22.39,22.39,0,0,1,92.45,425.95Z"/><path class="cls-1" d="M504.78,237.5a7.22,7.22,0,0,0,7.22-7.23V72.32A18.94,18.94,0,0,0,493.08,53.4H280.53a48.71,48.71,0,0,0-32-53,7.22,7.22,0,0,0-9.17,4.29L221.21,53.4H115.51L97.38,4.7A7.23,7.23,0,0,0,88.21.41a48.72,48.72,0,0,0-32,53H41.27A18.94,18.94,0,0,0,22.35,72.32V298.15a18.94,18.94,0,0,0,18.92,18.92H123L108.17,357A71.42,71.42,0,1,0,46.68,485.23a70.25,70.25,0,0,0,24.4,4.39A71.16,71.16,0,0,0,100.95,483a72.48,72.48,0,0,0,37.92-41.11l29.49-80.26,29.49,80.26A72.48,72.48,0,0,0,235.77,483a71.16,71.16,0,0,0,29.86,6.62,71.37,71.37,0,0,0,65.92-97.94,71.43,71.43,0,0,0-103-34.7l-14.86-39.9H493.08A18.94,18.94,0,0,0,512,298.15V276.27a7.23,7.23,0,1,0-14.45,0v21.88a4.47,4.47,0,0,1-4.47,4.47H190L276.31,67.85H493.08a4.47,4.47,0,0,1,4.47,4.47V230.27A7.23,7.23,0,0,0,504.78,237.5ZM73.4,31.75A34,34,0,0,1,86.57,17.08L100.1,53.4H70.86A34,34,0,0,1,73.4,31.75ZM41.27,302.62h0a4.47,4.47,0,0,1-4.47-4.47V72.32a4.47,4.47,0,0,1,4.47-4.47h116V87.1a7.23,7.23,0,0,0,14.45,0V67.85h44.06L171.76,186.19V132.52a7.23,7.23,0,0,0-14.45,0V225l-28.91,77.63Zm157,14.45h0l20,53.67a7.22,7.22,0,0,0,11.3,3.11A57,57,0,1,1,285,471.67a56,56,0,0,1-43.2-1.8,58.13,58.13,0,0,1-30.41-33l-35.36-96.22,8.68-23.61ZM264.49,58.14,125.3,436.9a58.13,58.13,0,0,1-30.41,33A56.78,56.78,0,0,1,18.59,397a57,57,0,0,1,88.58-23.19,7.22,7.22,0,0,0,11.3-3.11l21.74-58.37h0l110-295.29a34.27,34.27,0,0,1,14.34,41.06Z"/><path class="cls-1" d="M299.81,405.56a36.81,36.81,0,1,0-1.15,28.15A36.85,36.85,0,0,0,299.81,405.56Zm-14.26,22.08a22.36,22.36,0,1,1,.7-17.1A22.21,22.21,0,0,1,285.55,427.64Z"/><path class="cls-1" d="M105.26,178.12v-33.3c11.49.82,15.75,6.07,19.69,6.07,4.92,0,7.22-6.24,7.22-9.35,0-8-15.75-11.49-26.91-11.81v-4.43c0-2-2.46-3.77-4.92-3.77-2.79,0-4.76,1.8-4.76,3.77V130c-15.59,1.64-31.17,9.84-31.17,30.52,0,21,16.41,26.91,31.17,32.16v38.56C78.85,230,74.42,218.48,69,218.48c-4.1,0-7.55,5.41-7.55,9.35,0,8,13.78,19,34.13,19.36v5.09c0,2,2,3.77,4.76,3.77,2.46,0,4.92-1.8,4.92-3.77V246.7c17.72-2.46,29.86-13.62,29.86-33.8C135.12,190.58,119.54,183.37,105.26,178.12ZM96.57,175c-8.7-3.28-15.75-6.73-15.75-16.08,0-8.53,6.56-12.63,15.75-13.78Zm7.71,55.95V196.33c8,3.45,14.44,8,14.44,18.38C118.72,224.05,113.14,229.3,104.28,230.94Z"/><path class="cls-1" d="M303.32,152.08H260.74c-3.11,0-4.74,3.05-4.74,6.07,0,3.58,2,6.17,4.74,6.17h14.76v60.31c0,2.79,2.71,4.74,6.58,4.74,3.27,0,6.58-1.63,6.58-4.74V164.32h14.65c2.79,0,4.74-2.58,4.74-6.28C308.05,155.17,306.57,152.08,303.32,152.08Z"/><path class="cls-1" d="M385.69,222.45l-20.33-66.51c-.91-2.72-4.07-4.48-8.06-4.48s-7.05,1.76-8,4.5l-20.41,66.46a3.87,3.87,0,0,0-.16,1.29c0,3.34,4.17,5.66,7.92,5.66,3.25,0,4.45-1.66,4.9-3.09l4-13.74h23.62l4,13.76c.62,2,2.32,3.06,4.79,3.06,3.79,0,8-2.42,8-5.66A3.91,3.91,0,0,0,385.69,222.45Zm-37.12-20.92,8.73-29.95L366,201.53Z"/><path class="cls-1" d="M470.32,220.46l-17.42-29.8,16.92-29.6a6.75,6.75,0,0,0,1-3.23c0-3.58-4.17-6.07-7.92-6.07-2.18,0-4,1.33-5.11,3.68l-13.35,24.41-13.15-24.4c-1.61-3-3.67-3.69-5.12-3.69-3.79,0-8,2.49-8,6.07a6.77,6.77,0,0,0,1,3.24L436,190.67l-17.45,29.86a6,6,0,0,0-.74,2.67c0,3.59,4.44,6.48,8.12,6.48,1.72,0,3.35-1.1,4.49-3.06l14-25.47,14.15,25.43a5.19,5.19,0,0,0,4.41,3.1c3.8,0,8.23-2.83,8.23-6.48A6.29,6.29,0,0,0,470.32,220.46Z"/></g></g></svg>