<svg width="40px" height="29px" xmlns="http://www.w3.org/2000/svg" viewBox="0 0 512 375.87"><defs><style>.cls-1{fill:#6c718b;}</style></defs><title>team</title><g id="Слой_2" data-name="Слой 2"><g id="Layer_1" data-name="Layer 1"><path class="cls-1" d="M451.72,169.19c-17.42-8.71-50.09-8.81-51.47-8.81a7.5,7.5,0,0,0,0,15c8.43,0,32.9,1.3,44.76,7.23a7.5,7.5,0,0,0,6.71-13.42Z"/><path class="cls-1" d="M489.11,276l-31-8.85a3.14,3.14,0,0,1-2.27-3V253.78a56.37,56.37,0,0,0,7.17-5.88A55.17,55.17,0,0,0,479.92,208V193.71l3-6a47.85,47.85,0,0,0,5-21.29V127.79a7.5,7.5,0,0,0-7.5-7.5H408.27a47.65,47.65,0,0,0-47.6,47.6v.45a39.78,39.78,0,0,0,4.18,17.7l3.84,7.68V206a58.52,58.52,0,0,0,24.06,47.32v10.84c0,1.67,0,2.36-6.19,4.13l-15.11,4.32-43.72-15.9a7.49,7.49,0,0,0-2-5.74l-14-14.68V211.6c1.48-1.22,2.93-2.47,4.34-3.79a88,88,0,0,0,27.73-64V124.15a86.69,86.69,0,0,0,8-36.46V7.5a7.5,7.5,0,0,0-7.5-7.5H232a71.73,71.73,0,0,0-71.65,71.65v16a86.69,86.69,0,0,0,8,36.46v16.93A91.64,91.64,0,0,0,200.48,211v25.22l-14,14.68a7.49,7.49,0,0,0-2,5.74l-46.15,16.78A39.33,39.33,0,0,0,129,278.3l-7.25-3.62c21.57-9.39,28.4-22.59,28.73-23.25a7.5,7.5,0,0,0,0-6.71c-5.41-10.81-6.06-30.64-6.59-46.56-.18-5.3-.34-10.31-.66-14.77-2.56-36-29.9-63.1-63.62-63.1s-61.06,27.13-63.62,63.1c-.32,4.46-.48,9.47-.66,14.77-.53,15.92-1.18,35.74-6.59,46.56a7.5,7.5,0,0,0,0,6.71c.33.66,7.15,13.83,28.76,23.23L17.44,284.73A31.39,31.39,0,0,0,0,313v55.41a7.5,7.5,0,0,0,15,0V313a16.47,16.47,0,0,1,9.15-14.81l25.06-12.53,8.72,8.29a31.54,31.54,0,0,0,43.48,0l8.72-8.28,8.17,4.09a39.49,39.49,0,0,0-6,20.94v57.73a7.5,7.5,0,0,0,15,0V310.64a24.65,24.65,0,0,1,16.18-23.1l48.65-17.69,20.25,30.38a15.46,15.46,0,0,0,11.38,6.83q.78.08,1.55.08a15.46,15.46,0,0,0,11-4.55l12.36-12.36v78.12a7.5,7.5,0,0,0,15,0V290.24l12.36,12.36a15.45,15.45,0,0,0,11,4.55q.77,0,1.55-.08a15.46,15.46,0,0,0,11.38-6.83l20.25-30.38,48.65,17.69a24.65,24.65,0,0,1,16.18,23.1v57.73a7.5,7.5,0,0,0,15,0V310.64a39.65,39.65,0,0,0-11.09-27.44l1.85-.53a41.13,41.13,0,0,0,7-2.52l19.15,19.15v69.07a7.5,7.5,0,0,0,15,0V299.3l19-19a17.84,17.84,0,0,0,3.19,1.27l31,8.85a16.63,16.63,0,0,1,12,15.92v62a7.5,7.5,0,0,0,15,0v-62A31.7,31.7,0,0,0,489.11,276Zm-441-13.25C34.09,257.68,27,251,24,247.28a82.67,82.67,0,0,0,4.27-18,55.93,55.93,0,0,0,19.8,24.42Zm43,20.3a16.55,16.55,0,0,1-22.81,0l-7-6.63a15.52,15.52,0,0,0,1.82-7.32v-8a55.77,55.77,0,0,0,33.12,0v8a15.52,15.52,0,0,0,1.82,7.33ZM79.68,248.6A40.66,40.66,0,0,1,39.06,208a7.45,7.45,0,0,0-8.73-7.39c0-.64,0-1.29.07-1.93.17-5.16.33-10,.63-14.21a55.68,55.68,0,0,1,15.16-35,46.6,46.6,0,0,1,67,0,55.68,55.68,0,0,1,15.16,35c.3,4.18.46,9,.63,14.2l0,1.34c-8.16-12.57-20.76-21.84-37-27.07a94.13,94.13,0,0,0-28.53-4.52,7.5,7.5,0,0,0-5.19,2.29l-13.53,14a7.5,7.5,0,0,0,10.8,10.41l11.26-11.68c9.7.47,40.89,4.1,53,30.82A40.52,40.52,0,0,1,79.68,248.6Zm31.55,14.16v-8.95A55.48,55.48,0,0,0,131,229.36a82.57,82.57,0,0,0,4.27,17.92C132.31,250.92,125.24,257.71,111.23,262.75ZM183.4,141.08V122.47a7.5,7.5,0,0,0-.75-3.26,71.94,71.94,0,0,1-7.27-31.52v-16A56.72,56.72,0,0,1,232,15H336.81V87.69a71.94,71.94,0,0,1-7.27,31.52,7.5,7.5,0,0,0-.75,3.26v21.35a72,72,0,0,1-23,53,74.64,74.64,0,0,1-5.76,4.88l-.13.09a72.11,72.11,0,0,1-48.67,14.52C213.2,213.9,183.4,180.83,183.4,141.08ZM225.63,292a.47.47,0,0,1-.42.15.48.48,0,0,1-.38-.23l-23.32-35L209,249l35.38,24.19ZM256.1,263l-40.62-27.76v-14a84.45,84.45,0,0,0,34.79,10q3,.19,5.9.19a86.87,86.87,0,0,0,40.54-9.93v13.7Zm31.26,28.86a.48.48,0,0,1-.38.23.46.46,0,0,1-.42-.15l-18.77-18.77L303.18,249l7.51,7.89Zm137-6.33-17-17a20.58,20.58,0,0,0,.46-4.45v-3.17a52.59,52.59,0,0,0,14.85,2.62l1.73,0a55.71,55.71,0,0,0,16.54-2.5v3a17.93,17.93,0,0,0,.54,4.37Zm28.28-48.45a40.31,40.31,0,0,1-29.54,11.45c-21.7-.65-39.36-19.77-39.36-42.61v-14a7.49,7.49,0,0,0-.79-3.35l-4.63-9.27a24.71,24.71,0,0,1-2.59-11v-.45a32.63,32.63,0,0,1,32.6-32.6h64.67v31.15A32.77,32.77,0,0,1,469.5,181l-3.79,7.57a7.5,7.5,0,0,0-.79,3.35v16A40.29,40.29,0,0,1,452.59,237.13Z"/><path class="cls-1" d="M472.42,312.75a7.5,7.5,0,0,0-7.5,7.5v48.11a7.5,7.5,0,0,0,15,0V320.25A7.5,7.5,0,0,0,472.42,312.75Z"/><path class="cls-1" d="M39.58,322.66a7.5,7.5,0,0,0-7.5,7.5v38.2a7.5,7.5,0,0,0,15,0v-38.2A7.5,7.5,0,0,0,39.58,322.66Z"/><path class="cls-1" d="M317.53,90.41C289.17,62,229.82,67.47,205.62,71.11a15.4,15.4,0,0,0-13.15,15.34v17.28a7.5,7.5,0,0,0,15,0V86.45a.5.5,0,0,1,.39-.51c9.67-1.46,28.85-3.71,48.73-2.38C280,85.12,296.91,91,306.93,101a7.5,7.5,0,1,0,10.61-10.61Z"/><path class="cls-1" d="M167.88,328.79a7.5,7.5,0,0,0-7.5,7.5v32.08a7.5,7.5,0,0,0,15,0V336.29A7.5,7.5,0,0,0,167.88,328.79Z"/><path class="cls-1" d="M344.31,328.79a7.5,7.5,0,0,0-7.5,7.5v32.08a7.5,7.5,0,0,0,15,0V336.29A7.5,7.5,0,0,0,344.31,328.79Z"/></g></g></svg>