<?xml version="1.0" encoding="UTF-8"?>
<!DOCTYPE svg PUBLIC "-//W3C//DTD SVG 1.1//EN" "http://www.w3.org/Graphics/SVG/1.1/DTD/svg11.dtd">
<!-- Creator: CorelDRAW X8 -->
<svg xmlns="http://www.w3.org/2000/svg" xml:space="preserve" width="59px" height="63px" version="1.1" style="shape-rendering:geometricPrecision; text-rendering:geometricPrecision; image-rendering:optimizeQuality; fill-rule:evenodd; clip-rule:evenodd"
viewBox="0 0 189 203"
 xmlns:xlink="http://www.w3.org/1999/xlink">
 <defs>
  <style type="text/css">
   <![CDATA[
    .fil0 {fill:#6c718b}
    .fil1 {fill:#6c718b;fill-rule:nonzero}
   ]]>
  </style>
 </defs>
 <g id="Слой_x0020_1">
  <metadata id="CorelCorpID_0Corel-Layer"/>
  <path class="fil0" d="M143 112c0,-1 0,-1 -1,-2l-45 -45c-1,-1 -2,-1 -3,-1 0,0 -1,0 -2,1l-45 45c-1,1 -1,1 -1,2 0,1 0,2 1,3 1,1 1,1 2,1 1,0 2,0 3,-1l39 -39 0 124c0,1 0,2 1,2 1,1 1,1 2,1 1,0 2,0 3,-1 1,0 1,-1 1,-2l0 -124 39 39c1,1 2,1 2,1 1,0 2,0 3,-1 1,-1 1,-2 1,-3z"/>
  <path class="fil1" d="M42 173c5,3 11,6 16,9 1,0 2,0 2,-1 1,0 2,0 2,-1 0,-1 0,-2 0,-2 0,-1 -1,-1 -2,-2 -5,-2 -10,-5 -15,-8 -5,-3 -9,-7 -13,-11 -5,-5 -9,-10 -13,-16 -4,-6 -7,-13 -9,-19l0 -1 0 0c-4,-11 -5,-23 -4,-34 1,-12 4,-23 10,-33 5,-10 12,-20 21,-27 9,-7 19,-13 30,-17l1 0 0 0c11,-4 23,-5 34,-4 12,1 23,4 33,10 10,5 20,12 27,21 7,9 13,19 17,31 3,11 5,23 4,34 -1,12 -5,23 -10,33 -5,9 -11,18 -19,25 -7,7 -16,12 -26,16 -1,1 -1,1 -1,2 -1,1 -1,1 0,2 0,1 0,1 1,2 1,0 1,0 2,0 11,-4 20,-10 28,-18 8,-7 15,-16 20,-26 6,-11 9,-23 11,-36 1,-12 -1,-24 -5,-36 -3,-12 -10,-23 -17,-32 -8,-10 -18,-18 -29,-23 -11,-6 -23,-10 -36,-11 -12,-1 -24,1 -36,4l0 0c-12,4 -23,10 -32,18 -10,8 -18,18 -23,29 -6,11 -10,23 -11,35 -1,12 1,25 4,37l0 0c3,7 6,14 10,21 4,6 8,12 14,17 4,5 9,9 14,12z"/>
 </g>
</svg>
