<svg width="50px" height="46px" xmlns="http://www.w3.org/2000/svg" viewBox="0 0 55 46"><defs><style>.cls-1{fill:#fff;}</style></defs><title>upload</title><g id="Слой_2" data-name="Слой 2"><g id="Слой_1-2" data-name="Слой 1"><g id="Слой_1-3" data-name="Слой_1"><path class="cls-1" d="M44.55,11.87a13.3,13.3,0,0,0-1.69-4.44,14.66,14.66,0,0,0-3.21-3.71A16,16,0,0,0,34.73,1,17,17,0,0,0,29,0,17.3,17.3,0,0,0,24.6.58a16.4,16.4,0,0,0-4.08,1.7h0a15.75,15.75,0,0,0-2.88,2.16,14.71,14.71,0,0,0-2.22,2.7l-.17.28-.36-.06c-.27,0-.54-.09-.81-.11a7.88,7.88,0,0,0-.81,0A8.8,8.8,0,0,0,7.36,9.45,7.24,7.24,0,0,0,4.9,14.82a7,7,0,0,0,.05.8c0,.26.07.53.12.79l.07.28-.26.16a11.17,11.17,0,0,0-3.59,3.81A9.85,9.85,0,0,0,0,25.51a10.28,10.28,0,0,0,.83,4,11.52,11.52,0,0,0,2.39,3.57,12.26,12.26,0,0,0,3.66,2.58,11.67,11.67,0,0,0,4.26,1h10a1.12,1.12,0,0,0,.75-.28h0a.9.9,0,0,0,.3-.68.92.92,0,0,0-.3-.68,1.12,1.12,0,0,0-.75-.28H11.25a9.81,9.81,0,0,1-6.45-3A9.2,9.2,0,0,1,2.1,25.5a8.16,8.16,0,0,1,1.3-4.37,9.32,9.32,0,0,1,3.52-3.22h0a1,1,0,0,0,.46-.5,1,1,0,0,0,0-.66,4.45,4.45,0,0,1-.28-.95,5.1,5.1,0,0,1-.09-1,5.43,5.43,0,0,1,1.84-4,6.62,6.62,0,0,1,4.43-1.66,6.7,6.7,0,0,1,1.1.09,5.46,5.46,0,0,1,1,.26,1.18,1.18,0,0,0,.77,0A1.06,1.06,0,0,0,16.75,9a12.79,12.79,0,0,1,5-5.15,14.7,14.7,0,0,1,7.29-1.93,14.41,14.41,0,0,1,9.17,3.19,11.93,11.93,0,0,1,4.38,8,.93.93,0,0,0,.28.56,1.1,1.1,0,0,0,.59.29h0a11.37,11.37,0,0,1,6.72,3.61,9.9,9.9,0,0,1-.38,14,11.66,11.66,0,0,1-7.44,3.39H33.85a1.1,1.1,0,0,0-.75.28.9.9,0,0,0-.3.68.93.93,0,0,0,.3.68,1.1,1.1,0,0,0,.75.28H42.5a13.93,13.93,0,0,0,4.82-1.2,13.46,13.46,0,0,0,4.06-2.79h0a12.72,12.72,0,0,0,2.69-3.93A11.55,11.55,0,0,0,55,24.3h0a12,12,0,0,0-2.86-7.62,13.54,13.54,0,0,0-7.23-4.45l-.31-.07Z"/><path class="cls-1" d="M36.48,26.52a.88.88,0,0,0,0-1.35l-8.23-7.46h0a1.29,1.29,0,0,0-.35-.21,1.11,1.11,0,0,0-.39-.07,1.23,1.23,0,0,0-.41.07,1.11,1.11,0,0,0-.33.2h0l-8.23,7.46a.88.88,0,0,0,0,1.35h0a1.07,1.07,0,0,0,.34.21,1,1,0,0,0,.4.07,1.09,1.09,0,0,0,.73-.28h0l6.44-5.84V45a.92.92,0,0,0,.3.68,1.1,1.1,0,0,0,.75.28,1.12,1.12,0,0,0,.75-.28h0a.92.92,0,0,0,.3-.68V20.69L35,26.52h0a1.07,1.07,0,0,0,.72.27,1.1,1.1,0,0,0,.74-.28Z"/></g></g></g></svg>