<svg width="387px" height="245px" xmlns="http://www.w3.org/2000/svg" viewBox="0 0 145.05 92.72"><defs><style>.cls-1,.cls-5,.cls-6,.cls-7,.cls-8{fill:#0b1036;}.cls-2{fill:#6c718b;}.cls-3{fill:#fff;}.cls-4,.cls-9{fill:#ae9a67;}.cls-5,.cls-6,.cls-7{font-size:16.91px;font-family:Affect-Light, Affect;}.cls-5{letter-spacing:-0.06em;}.cls-7{letter-spacing:-0.01em;}.cls-8,.cls-9{fill-rule:evenodd;}</style></defs><title>warranty</title><g id="Слой_2" data-name="Слой 2"><g id="Слой_1-2" data-name="Слой 1"><path class="cls-1" d="M42.22,79.84,41,78.21h-2l-7.51.07H30.14a7.14,7.14,0,0,1-5.75-2.55,3.83,3.83,0,0,1-.32-.5l-.9-1.66-1.84-.43A27.06,27.06,0,0,1,0,46.37,27.19,27.19,0,0,1,21.33,19.43L23.16,19l.9-1.64a4.08,4.08,0,0,1,.34-.52,7.2,7.2,0,0,1,5.78-2.54h.93c1.7,0,5.37.07,7.82.08h2l1.26-1.59C48.45,4.95,59.6.16,72,0h1c12.43.15,23.58,4.95,29.83,12.81l1.26,1.59h2c2.6,0,6.57-.06,8.11-.08h.66a7.14,7.14,0,0,1,5.76,2.55,3.79,3.79,0,0,1,.31.49l.9,1.66,1.84.43A27.09,27.09,0,0,1,145,46.22a27.16,27.16,0,0,1-21.33,26.93l-1.84.43-.9,1.66a4,4,0,0,1-.32.5,7.15,7.15,0,0,1-5.79,2.55H114c-1.85,0-5.48-.07-7.9-.08h-2l-1.27,1.59C89.19,97,55.91,97.09,42.22,79.84Z"/><path class="cls-2" d="M43.86,78,42,75.23c-3.89.31-13.54,1.1-16-.91-.07-.09-.12-.09-.16-.17l-1.35-2.45-2.76-.62A25,25,0,0,1,2.09,46.36,25.13,25.13,0,0,1,21.81,21.47l2.73-.63,1.35-2.46a2,2,0,0,1,.16-.26,5.19,5.19,0,0,1,4.11-1.71l1.09,0c1.78,0,5.29.07,7.66.07h3l1.89-2.39c5.85-7.38,16.39-11.87,28.2-12H73c11.83.15,22.38,4.64,28.24,12l1.89,2.38h3c2.6,0,6.59-.06,8.13-.08h.66A5.09,5.09,0,0,1,119,18.1a1.74,1.74,0,0,1,.15.23l1.34,2.49,2.76.64A25,25,0,0,1,143,46.22a25.1,25.1,0,0,1-19.7,24.89l-2.76.64-1.35,2.49a1.79,1.79,0,0,1-.15.24,5.14,5.14,0,0,1-4.11,1.71h-.82c-1.86,0-5.49-.07-7.92-.08l-3.05,0-1.9,2.6c-6.54,8.23-17,12.2-27.61,12.29-11.35.09-22.83-4.28-29.72-13Z"/><path class="cls-3" d="M70.89,87.48c-10.45-.41-19.66-4.41-24.74-10.81l-2.89-3.59-4.61,0c-2.08,0-5,.05-6.92.08l-1.95,0a2.39,2.39,0,0,1-1.47-.42l-2-3.64-4.16-1A22.06,22.06,0,0,1,4.79,46.37a22.19,22.19,0,0,1,17.4-22l4.13-1,2-3.62a2.61,2.61,0,0,1,1.59-.44l1,0c1.8,0,5.35.07,7.74.08h4.6l2.86-3.6c5.31-6.69,15-10.76,26-10.9h.75c11,.14,20.76,4.21,26.07,10.9l2.86,3.6h4.6c2.63,0,6.66-.06,8.22-.08h.66a2.47,2.47,0,0,1,1.49.42l2,3.63,4.17,1a22.09,22.09,0,0,1,17.4,21.83,22.15,22.15,0,0,1-17.39,22l-4.17,1-2,3.64a2.63,2.63,0,0,1-1.57.42h-.78c-1.88,0-5.55-.07-8-.08l-4.61,0-2.87,3.61c-5.09,6.41-14.29,10.41-24.71,10.83l-3.3-.06Z"/><polygon class="cls-4" points="18.63 41.2 20.02 44 23.11 44.45 20.87 46.63 21.4 49.71 18.63 48.26 15.87 49.71 16.39 46.63 14.16 44.45 17.25 44 18.63 41.2 18.63 41.2"/><polygon class="cls-4" points="128.97 41.79 130.35 44.59 133.45 45.04 131.21 47.23 131.74 50.31 128.97 48.85 126.2 50.31 126.73 47.23 124.49 45.04 127.59 44.59 128.97 41.79 128.97 41.79"/><text class="cls-5" transform="translate(33.13 44.46)">ГА</text><text class="cls-6" transform="translate(51.73 44.46)">Р</text><text class="cls-6" transform="translate(60.35 44.46)">АНТИЯ</text><text class="cls-7" transform="translate(33 58.58)">КА</text><text class="cls-6" transform="translate(52.66 58.58)">ЧЕ</text><text class="cls-6" transform="translate(71.12 58.58)">СТВ</text><text class="cls-6" transform="translate(99.67 58.58)">А</text><polygon class="cls-8" points="33.95 28.89 110.18 28.89 110.18 29.66 33.95 29.66 33.95 28.89 33.95 28.89"/><polygon class="cls-8" points="33.95 64.14 110.18 64.14 110.18 64.91 33.95 64.91 33.95 64.14 33.95 64.14"/><polygon class="cls-9" points="66.59 24.17 77.55 24.17 77.55 22.87 66.59 22.87 66.59 24.17 66.59 24.17"/><path class="cls-9" d="M80.4,15a.58.58,0,0,0-.58.58A.57.57,0,0,0,80,16l-4.57,5.58,1.2-6.81.1,0a.58.58,0,1,0-.58-.58.58.58,0,0,0,.31.5L73,21.14l-.88-8a.58.58,0,0,0,.52-.57.58.58,0,1,0-.65.57l-.88,8-3.47-6.4a.58.58,0,0,0,.31-.5.58.58,0,1,0-.58.58l.1,0,1.2,6.81L64.1,16a.57.57,0,0,0,.22-.44.58.58,0,1,0-.58.58.57.57,0,0,0,.22,0l2.57,6.35H77.61l2.57-6.35A.58.58,0,1,0,80.4,15Z"/><polygon class="cls-4" points="59.09 70.54 59.84 72.05 61.5 72.29 60.3 73.46 60.58 75.12 59.09 74.33 57.6 75.12 57.89 73.46 56.68 72.29 58.35 72.05 59.09 70.54 59.09 70.54"/><polygon class="cls-4" points="65.58 70.54 66.32 72.05 67.99 72.29 66.78 73.46 67.07 75.12 65.58 74.33 64.09 75.12 64.38 73.46 63.17 72.29 64.84 72.05 65.58 70.54 65.58 70.54"/><polygon class="cls-4" points="72.07 70.54 72.81 72.05 74.48 72.29 73.27 73.46 73.56 75.12 72.07 74.33 70.58 75.12 70.86 73.46 69.66 72.29 71.33 72.05 72.07 70.54 72.07 70.54"/><polygon class="cls-4" points="78.56 70.54 79.3 72.05 80.97 72.29 79.76 73.46 80.05 75.12 78.56 74.33 77.07 75.12 77.35 73.46 76.15 72.29 77.81 72.05 78.56 70.54 78.56 70.54"/><polygon class="cls-4" points="85.05 70.54 85.79 72.05 87.45 72.29 86.25 73.46 86.53 75.12 85.05 74.33 83.56 75.12 83.84 73.46 82.64 72.29 84.3 72.05 85.05 70.54 85.05 70.54"/><polygon class="cls-4" points="59.09 70.54 59.84 72.05 61.5 72.29 60.3 73.46 60.58 75.12 59.09 74.33 57.6 75.12 57.89 73.46 56.68 72.29 58.35 72.05 59.09 70.54 59.09 70.54"/><polygon class="cls-4" points="65.58 70.54 66.32 72.05 67.99 72.29 66.78 73.46 67.07 75.12 65.58 74.33 64.09 75.12 64.38 73.46 63.17 72.29 64.84 72.05 65.58 70.54 65.58 70.54"/><polygon class="cls-4" points="72.07 70.54 72.81 72.05 74.48 72.29 73.27 73.46 73.56 75.12 72.07 74.33 70.58 75.12 70.86 73.46 69.66 72.29 71.33 72.05 72.07 70.54 72.07 70.54"/><polygon class="cls-4" points="78.56 70.54 79.3 72.05 80.97 72.29 79.76 73.46 80.05 75.12 78.56 74.33 77.07 75.12 77.35 73.46 76.15 72.29 77.81 72.05 78.56 70.54 78.56 70.54"/><polygon class="cls-4" points="85.05 70.54 85.79 72.05 87.45 72.29 86.25 73.46 86.53 75.12 85.05 74.33 83.56 75.12 83.84 73.46 82.64 72.29 84.3 72.05 85.05 70.54 85.05 70.54"/></g></g></svg>